<?xml version="1.0" standalone="no"?>
<!DOCTYPE svg PUBLIC "-//W3C//DTD SVG 1.1//EN" "http://www.w3.org/Graphics/SVG/1.1/DTD/svg11.dtd" >
<svg xmlns="http://www.w3.org/2000/svg">
<metadata></metadata>
<defs>
<font id="fs_joeyregular" horiz-adv-x="1064" >
<font-face units-per-em="2048" ascent="1536" descent="-512" />
<missing-glyph horiz-adv-x="481" />
<glyph unicode="&#xfb01;" horiz-adv-x="1013" d="M41 909v41q0 24 20 27l125 27v63q0 178 84 254q94 84 271 84q59 0 128 -9t109 -24q31 -12 25 -37l-10 -47q-3 -15 -10.5 -19.5t-24.5 -0.5q-86 26 -219 26q-123 0 -171.5 -49.5t-48.5 -175.5v-65h502q25 0 25 -23v-965q0 -16 -19 -16h-98q-16 0 -16 16v871h-394v-862 q0 -25 -22 -25h-86q-11 0 -18 7t-7 18v862h-125q-11 0 -15.5 4.5t-4.5 17.5z" />
<glyph unicode="&#xfb02;" horiz-adv-x="1095" d="M41 909v41q0 24 20 27l125 27v63q0 178 84 254q94 84 277 84q101 0 186 -29l103 10q24 0 24 -24v-1094q0 -57 3.5 -85t15.5 -44q17 -22 73 -22h56q9 0 13 -1t7.5 -6t3.5 -16v-69q0 -25 -20 -25h-78q-111 0 -158 47q-49 52 -49 189v1021q-78 37 -188 37 q-123 0 -171.5 -49.5t-48.5 -175.5v-65h220q20 0 20 -21v-76q0 -20 -20 -20h-220v-862q0 -25 -22 -25h-86q-11 0 -18 7t-7 18v862h-125q-11 0 -15.5 4.5t-4.5 17.5z" />
<glyph horiz-adv-x="0" />
<glyph horiz-adv-x="682" />
<glyph unicode=" "  horiz-adv-x="481" />
<glyph unicode="&#x09;" horiz-adv-x="481" />
<glyph unicode="&#xa0;" horiz-adv-x="481" />
<glyph unicode="!" horiz-adv-x="438" d="M123 61v45q0 38 23.5 59t62.5 21h20q40 0 63 -21t23 -59v-45q0 -39 -22.5 -59t-63.5 -20h-20q-40 0 -63 20t-23 59zM135 1294q0 35 33 35h108q29 0 29 -35l-20 -966q0 -35 -33 -35h-68q-28 0 -28 35z" />
<glyph unicode="&#x22;" horiz-adv-x="624" d="M84 1366q-3 43 35 43h74q37 0 34 -43l-16 -403q0 -37 -35 -37h-43q-33 0 -33 37zM397 1366q-3 43 35 43h74q38 0 35 -43l-17 -403q0 -37 -35 -37h-43q-32 0 -32 37z" />
<glyph unicode="#" horiz-adv-x="1247" d="M4 432l16 66q4 18 13 24t30 6h234l59 273h-245q-20 0 -26 7.5t-1 25.5l16 65q4 18 13 24.5t30 6.5h240l80 362q8 33 41 33h84q16 0 22 -7t2 -26l-80 -362h277l80 362q8 33 41 33h84q16 0 22 -7t2 -26l-80 -362h259q37 0 28 -29l-18 -74q-3 -16 -13 -21t-32 -5h-252 l-58 -273h265q20 0 26 -5t2 -23l-18 -74q-5 -27 -45 -27h-258l-78 -364q-8 -35 -49 -35h-76q-33 0 -25 35l78 364h-276l-78 -364q-8 -35 -49 -35h-76q-33 0 -25 35l78 364h-237q-20 0 -26 7t-1 26zM446 528h277l59 273h-278z" />
<glyph unicode="$" d="M129 975v31q0 152 102 236.5t258 84.5v174q0 29 27 29h45q27 0 27 -29v-174q127 -5 260 -43q21 -6 26.5 -14.5t2.5 -24.5l-17 -65q-5 -16 -14 -19t-35 4q-106 32 -223 41v-465l49 -12q156 -36 228.5 -114.5t72.5 -225.5v-33q0 -163 -92 -249.5t-258 -102.5v-184 q0 -29 -31 -29h-37q-31 0 -31 29v180q-189 0 -321 55q-35 14 -27 47l15 56q9 38 47 20q121 -59 286 -59v510l-59 14q-152 36 -226.5 115t-74.5 217zM272 983q0 -98 49.5 -143.5t167.5 -75.5v442q-103 0 -160 -51t-57 -151v-21zM588 125q207 31 207 221v23q0 105 -44.5 155.5 t-162.5 79.5v-479z" />
<glyph unicode="%" horiz-adv-x="1597" d="M115 969v22q0 211 80 291q61 61 178 61t178 -61q80 -80 80 -291v-22q0 -211 -80 -291q-62 -62 -178 -62t-178 62q-80 80 -80 291zM240 971q0 -144 30 -197t103 -53t103 53t30 197v18q0 144 -30 197t-103 53t-103 -53t-30 -197v-18zM365 8l725 1311q13 24 38 24h78 q32 0 19 -26l-725 -1311q-13 -24 -45 -24h-72q-31 0 -18 26zM958 334v22q0 211 80 291q62 62 179 62q116 0 178 -62q80 -80 80 -291v-22q0 -211 -80 -291q-61 -61 -178 -61q-118 0 -179 61q-80 80 -80 291zM1083 336q0 -144 30.5 -197t103.5 -53t103 53t30 197v18 q0 144 -30 197t-103 53t-103.5 -53t-30.5 -197v-18z" />
<glyph unicode="&#x26;" horiz-adv-x="1253" d="M88 315v37q0 128 67 222t191 149q-166 153 -166 313v13q0 133 89 213.5t243 80.5q155 0 240.5 -79.5t85.5 -208.5v-23q0 -121 -57 -211.5t-193 -167.5l317 -313q13 63 13 137v168q0 15 5.5 21t20.5 6h88q25 0 25 -27v-147q0 -160 -41 -269l160 -155q26 -26 -2 -47 l-37 -33q-15 -12 -26 -11.5t-26 15.5l-129 125q-115 -141 -391 -141h-71q-203 0 -304.5 86.5t-101.5 246.5zM238 330q0 -113 66.5 -173.5t203.5 -60.5h53q218 0 297 123l-440 434q-95 -52 -137.5 -126.5t-42.5 -174.5v-22zM326 1032q0 -65 35.5 -127.5t121.5 -148.5l37 -37 q101 67 136.5 135t35.5 178v15q0 90 -49 136t-129 46q-188 0 -188 -187v-10z" />
<glyph unicode="'" horiz-adv-x="311" d="M84 1366q-3 43 35 43h74q37 0 34 -43l-16 -403q0 -37 -35 -37h-43q-33 0 -33 37z" />
<glyph unicode="(" horiz-adv-x="583" d="M139 582q0 223 65 415.5t222 401.5q22 28 53 14l49 -24q28 -13 11 -39q-252 -337 -252 -764q0 -218 56 -397.5t194 -366.5q17 -25 -15 -41l-47 -25q-15 -8 -25 -5t-22 18q-289 370 -289 813z" />
<glyph unicode=")" horiz-adv-x="581" d="M43 -182q252 337 252 764q0 218 -56 397.5t-194 366.5q-17 24 14 40l47 25q27 14 48 -12q288 -368 288 -813q0 -223 -65 -415.5t-221 -401.5q-23 -29 -54 -15l-49 25q-27 13 -10 39z" />
<glyph unicode="*" horiz-adv-x="712" d="M57 1243l25 72q10 32 47 14l193 -104l-29 229q-1 10 -1.5 19.5t6.5 15.5t21 6h74q21 0 25 -10.5t2 -30.5l-29 -229l193 104q37 18 47 -14l24 -72q10 -31 -18 -37l-227 -55l172 -166q16 -16 17 -33t-17 -28l-60 -37q-24 -12 -35 -8t-22 26l-109 205l-108 -205 q-11 -22 -22.5 -26t-35.5 8l-59 37q-39 22 0 61l172 166l-227 55q-29 6 -19 37z" />
<glyph unicode="+" d="M80 498v71q0 31 31 31h354v354q0 18 7.5 24.5t23.5 6.5h71q31 0 31 -31v-354h354q31 0 31 -31v-75q0 -27 -31 -27h-354v-354q0 -31 -31 -31h-75q-27 0 -27 31v354h-354q-18 0 -24.5 7.5t-6.5 23.5z" />
<glyph unicode="," horiz-adv-x="405" d="M111 74v39q0 37 22 57t62 20h30q97 0 97 -104v-39q0 -64 -27 -147q-32 -89 -86 -154q-19 -24 -43 -10l-37 22q-22 12 -2 39q22 31 41 68q22 43 29 69q8 27 -11 37l-36 19q-23 12 -31 30.5t-8 53.5z" />
<glyph unicode="-" horiz-adv-x="600" d="M72 496v75q0 31 30 31h396q30 0 30 -31v-79q0 -27 -30 -27h-396q-18 0 -24 7.5t-6 23.5z" />
<glyph unicode="." horiz-adv-x="393" d="M98 61v50q0 38 24 58.5t64 20.5h21q42 0 65 -20.5t23 -58.5v-50q0 -79 -88 -79h-21q-41 0 -64.5 20t-23.5 59z" />
<glyph unicode="/" horiz-adv-x="688" d="M72 -23l432 1405q6 18 13.5 23.5t23.5 5.5h73q32 0 23 -29l-432 -1405q-6 -18 -13.5 -23t-23.5 -5h-74q-30 0 -22 28z" />
<glyph unicode="0" d="M106 635v55q0 394 134 543q99 110 292 110q194 0 293 -110q133 -148 133 -543v-55q0 -395 -133 -543q-99 -110 -293 -110q-193 0 -292 110q-134 149 -134 543zM256 649q0 -93 3.5 -158t22 -152t52.5 -140q64 -103 198 -103q135 0 199 103q34 53 52.5 140t22 152t3.5 158 v27q0 93 -3.5 158t-22 152t-52.5 140q-64 103 -199 103q-134 0 -198 -103q-34 -53 -52.5 -140t-22 -152t-3.5 -158v-27z" />
<glyph unicode="1" d="M162 31v53q0 31 31 31h294v1071h-14l-211 -127q-26 -16 -43 10l-33 53q-15 24 11 39l225 139q40 25 88 25h70q26 0 37.5 -10t11.5 -33v-1167h286q31 0 31 -31v-57q0 -27 -31 -27h-722q-18 0 -24.5 7.5t-6.5 23.5z" />
<glyph unicode="2" d="M152 49v119q0 185 57.5 299.5t210.5 181.5l141 62q121 53 163 110.5t42 159.5v14q0 131 -68 187q-58 47 -178 47q-130 0 -274 -51q-42 -14 -49 16l-17 53q-6 29 29 41q160 55 321 55q183 0 275 -69q110 -82 110 -264v-27q0 -145 -63 -226.5t-219 -148.5l-141 -61 q-119 -52 -159 -131.5t-40 -229.5v-71h571q27 0 27 -27v-61q0 -27 -27 -27h-665q-27 0 -37 11t-10 38z" />
<glyph unicode="3" d="M145 63l13 54q6 32 45 20q127 -41 276 -41q143 0 217 68q66 63 66 188v19q0 155 -82.5 213.5t-259.5 58.5h-62q-18 0 -23 6t-5 21v61q0 16 7 22.5t25 6.5h48q162 0 243.5 59t81.5 185v18q0 102 -61.5 154.5t-169.5 52.5q-124 0 -244 -47q-42 -14 -49 14l-16 53 q-5 16 1 25t27 16q141 53 295 53q175 0 271 -78.5t96 -232.5v-26q0 -111 -54.5 -187t-156.5 -108v-6q105 -21 171 -104.5t66 -217.5v-27q0 -185 -108 -279.5t-318 -94.5q-164 0 -311 41q-35 10 -29 40z" />
<glyph unicode="4" d="M78 381v35q0 23 37 86l465 790q18 33 65 33h123q27 0 39 -10.5t12 -34.5v-819h133q35 0 35 -29v-59q0 -33 -35 -33h-133v-305q0 -35 -33 -35h-77q-31 0 -31 35v305h-561q-39 0 -39 41zM227 461h451v739h-14z" />
<glyph unicode="5" d="M140 72.5q-5 8.5 1 25.5l21 56q10 31 45 14q128 -72 278 -72q156 0 226 76q71 74 71 231v19q0 145 -63 217q-66 72 -201 72q-131 0 -242 -68q-26 -15 -45 -8l-30 12q-20 9 -17 35l43 606q3 37 41 37h537q20 0 28.5 -7t8.5 -26v-49q0 -18 -8.5 -25.5t-32.5 -7.5h-434 q-26 0 -29 -26l-29 -414q95 61 242 61q201 0 295 -114q86 -105 86 -291v-23q0 -213 -119 -319q-113 -102 -330 -102q-78 0 -167 21t-152 52q-19 9 -24 17.5z" />
<glyph unicode="6" d="M115 586v49q0 179 38.5 330.5t110.5 232.5q127 145 373 145q124 0 203 -28q36 -12 30 -39l-14 -51q-9 -34 -43 -23q-89 27 -186 27q-168 0 -258 -121q-81 -109 -101 -381q55 47 140 75.5t167 28.5q177 0 276 -101.5t99 -283.5v-36q0 -199 -108 -313.5t-299 -114.5 q-120 0 -203.5 39t-132.5 118t-70.5 187.5t-21.5 259.5zM264 557q0 -234 62 -347.5t209 -113.5q128 0 197 79t69 228v27q0 140 -66 210.5t-186 70.5q-157 0 -285 -125v-29z" />
<glyph unicode="7" d="M135 1237v61q0 27 27 27h753q50 0 50 -41v-37q0 -9 -2.5 -19.5t-8 -23.5t-10 -22.5t-13.5 -27t-13 -26.5l-547 -1087q-10 -25 -23 -33t-41 -8h-65q-47 0 -29 41l594 1169h-645q-27 0 -27 27z" />
<glyph unicode="8" d="M109 328v22q0 106 58 195.5t163 150.5q-91 47 -140 121t-49 164v23q0 156 104.5 247.5t282.5 91.5q180 0 278.5 -82.5t98.5 -234.5v-22q0 -210 -190 -334q227 -109 227 -308v-20q0 -171 -112.5 -265.5t-301.5 -94.5q-194 0 -306.5 89t-112.5 257zM258 336q0 -116 72 -178 t198 -62q119 0 192 65t73 179v10q0 80 -50 139t-157 101l-148 57q-180 -119 -180 -301v-10zM291 995q0 -82 46 -135t146 -94l121 -51q79 64 115.5 130.5t36.5 151.5v15q0 104 -59 160.5t-169 56.5t-173.5 -58t-63.5 -159v-17z" />
<glyph unicode="9" d="M113 877v36q0 188 109 309t302 121q99 0 172.5 -27t121.5 -75.5t77 -125t41 -167.5t12 -211v-49q0 -176 -40.5 -327.5t-112.5 -233.5q-127 -145 -369 -145q-117 0 -203 28q-36 12 -30 39l14 51q9 34 43 23q82 -27 186 -27q168 0 258 121q82 113 101 379 q-55 -47 -140.5 -75.5t-167.5 -28.5q-177 0 -275.5 101.5t-98.5 283.5zM262 893q0 -140 66.5 -211.5t185.5 -71.5q157 0 285 125v29q0 237 -64 351t-207 114q-127 0 -196.5 -80.5t-69.5 -228.5v-27z" />
<glyph unicode=":" horiz-adv-x="475" d="M139 61v50q0 38 24 58.5t64 20.5h21q42 0 65 -20.5t23 -58.5v-50q0 -79 -88 -79h-21q-41 0 -64.5 20t-23.5 59zM139 842v49q0 38 24 59t64 21h21q41 0 64.5 -21t23.5 -59v-49q0 -39 -23 -59.5t-65 -20.5h-21q-41 0 -64.5 20.5t-23.5 59.5z" />
<glyph unicode=";" horiz-adv-x="475" d="M137 74v39q0 37 22 57t62 20h31q96 0 96 -104v-39q0 -67 -26 -147q-32 -89 -86 -154q-19 -24 -43 -10l-37 22q-22 12 -2 39q22 31 41 68q20 39 28 69q8 28 -10 37l-37 19q-23 12 -31 30.5t-8 53.5zM139 842v49q0 38 24 59t64 21h21q41 0 64.5 -21t23.5 -59v-49 q0 -39 -23 -59.5t-65 -20.5h-21q-41 0 -64.5 20.5t-23.5 59.5z" />
<glyph unicode="&#x3c;" d="M150 516v37q0 21 18 31l637 348q34 18 49 -10l31 -52q20 -33 -8 -47l-537 -288l528 -285q36 -20 19 -49l-33 -54q-15 -27 -53 -6l-633 344q-18 10 -18 31z" />
<glyph unicode="=" d="M80 303v72q0 31 31 31h841q31 0 31 -31v-76q0 -27 -31 -27h-841q-18 0 -24.5 7.5t-6.5 23.5zM80 692v72q0 31 31 31h841q31 0 31 -31v-76q0 -12 -6 -18.5t-11 -7t-14 -0.5h-841q-18 0 -24.5 7t-6.5 23z" />
<glyph unicode="&#x3e;" d="M178 201q-18 30 19 49l528 285l-528 284q-37 18 -19 47l33 56q15 27 53 6l633 -344q18 -10 18 -31v-37q0 -21 -18 -31l-627 -342q-23 -12 -36.5 -11.5t-22.5 15.5z" />
<glyph unicode="?" horiz-adv-x="909" d="M96 1247q-9 31 27 43q154 53 315 53q194 0 291.5 -87t97.5 -236v-33q0 -110 -52 -185t-173 -153l-115 -76q-53 -35 -70.5 -85t-17.5 -162q0 -33 -34 -33h-68q-29 0 -29 33q0 102 15 165t48.5 106.5t96.5 84.5l121 78q78 50 106 117q23 53 23 114v17q0 111 -66.5 166 t-187.5 55q-139 0 -266 -47q-38 -14 -47 14zM238 61v45q0 38 23.5 59t62.5 21h20q40 0 63 -21t23 -59v-45q0 -39 -22.5 -59t-63.5 -20h-20q-40 0 -63 20t-23 59z" />
<glyph unicode="@" horiz-adv-x="1662" d="M119 596q0 175 57.5 323t159 250.5t243 159.5t306.5 57q136 0 252 -38.5t203.5 -113t137.5 -192.5t50 -268q0 -114 -28.5 -208t-77 -153.5t-111 -91.5t-131.5 -32q-175 0 -215 117h-4q-25 -43 -78.5 -70t-118.5 -27q-229 0 -229 230q0 59 24 227q19 131 86 189.5 t178 58.5q137 0 189 -84l10 35q4 13 10.5 16.5t20.5 3.5h47q17 0 23.5 -6.5t4.5 -20.5l-51 -434q-9 -78 18.5 -111.5t96.5 -33.5q40 0 80.5 23.5t75 69t56 121t21.5 169.5q0 244 -149.5 383t-390.5 139q-128 0 -242 -48t-199 -134.5t-134.5 -216.5t-49.5 -285 q0 -288 146.5 -420.5t445.5 -132.5q89 0 195 22t188 54q25 10 33 -14l12 -46q6 -20 -16 -30q-98 -42 -215.5 -64t-217.5 -22q-353 0 -532.5 164.5t-179.5 484.5zM662 559q0 -36 4 -61t16 -49t38 -36t66 -12q66 0 113 40t57 122l25 193q10 80 -26.5 121t-114.5 41 q-72 0 -107.5 -36.5t-50.5 -133.5q-20 -132 -20 -189z" />
<glyph unicode="A" horiz-adv-x="1081" d="M45 35q108 433 266 919q66 199 111 314q15 38 29 47.5t53 9.5h74q39 0 54 -10t30 -47q27 -68 108 -314q166 -520 264 -915q2 -8 2 -14q0 -25 -28 -25h-80q-19 0 -28 7t-13 26q-51 202 -101 381h-493l-98 -381q-8 -33 -41 -33h-82q-18 0 -24 8q-4 5 -5 14q0 5 2 13z M328 537h426q-32 110 -109 368q-40 136 -92 287h-25q-52 -151 -92 -287q-67 -225 -108 -368z" />
<glyph unicode="B" horiz-adv-x="1056" d="M145 59v1201q0 28 7.5 38.5t33.5 16.5q133 28 273 28q428 0 428 -315v-31q0 -225 -193 -286v-4q129 -19 202 -97t73 -209v-28q0 -373 -514 -373q-150 0 -262 8q-26 2 -37 13t-11 38zM287 147q0 -25 24 -28q47 -4 150 -4q64 0 113.5 6t97 23t78.5 45t50 74t19 108v22 q0 135 -80.5 187.5t-273.5 52.5h-178v-486zM287 750h143q157 0 232 53.5t75 195.5v21q0 114 -66.5 161.5t-209.5 47.5q-73 0 -150 -15q-24 -5 -24 -28v-436z" />
<glyph unicode="C" horiz-adv-x="1032" d="M111 608v109q0 201 36.5 329t126.5 201q119 96 312 96q195 0 352 -96q16 -9 16 -22q0 -8 -6 -17l-35 -53q-13 -21 -41 -6q-135 80 -280 80q-149 0 -234 -88q-59 -60 -78.5 -160t-19.5 -289v-57q0 -191 18 -288t72 -159q83 -92 262 -92q133 0 277 54q39 13 47 -19l14 -45 q2 -9 2 -15q0 -7 -2 -13q-6 -10 -26 -17q-148 -59 -312 -59q-146 0 -238.5 32.5t-150.5 100.5q-63 74 -87.5 191.5t-24.5 301.5z" />
<glyph unicode="D" horiz-adv-x="1191" d="M145 51v1229q0 26 10.5 38t37.5 15q100 10 239 10q174 0 295.5 -30t200.5 -101q79 -72 116 -187.5t37 -301.5v-102q0 -327 -137 -474t-455 -147h-294q-50 0 -50 51zM287 141q0 -26 24 -26h156q132 0 204.5 18.5t131.5 69.5q68 57 98.5 156t30.5 278v65q0 159 -25.5 254.5 t-81.5 157.5q-104 115 -358 115q-117 0 -156 -4q-24 -3 -24 -31v-1053z" />
<glyph unicode="E" horiz-adv-x="964" d="M123 608v109q0 235 14 399q9 116 66 164q53 45 176 45h471q18 0 24.5 -7.5t6.5 -23.5v-53q0 -31 -31 -31h-461q-58 0 -84 -26q-21 -21 -24 -84q-13 -212 -13 -359h486q18 0 24 -7t6 -23v-54q0 -30 -30 -30h-486q0 -299 8 -408q3 -62 25 -84q23 -20 84 -20h465 q31 0 31 -31v-53q0 -16 -6.5 -23.5t-24.5 -7.5h-475q-123 0 -176 45q-55 47 -64 164q-12 157 -12 399z" />
<glyph unicode="F" horiz-adv-x="917" d="M145 33v1081q0 108 60 162q55 49 168 49h444q31 0 31 -27v-61q0 -27 -31 -27h-411q-73 0 -97 -24q-22 -22 -22 -92v-353h469q18 0 24 -7t6 -23v-54q0 -30 -30 -30h-469v-594q0 -18 -7 -25.5t-22 -7.5h-84q-15 0 -22 7.5t-7 25.5z" />
<glyph unicode="G" horiz-adv-x="1150" d="M111 608v109q0 312 129.5 469t404.5 157q183 0 338 -49q31 -9 21 -39l-19 -55q-6 -18 -16 -21t-33 5q-134 45 -295 45q-184 0 -281 -115q-54 -64 -77 -161.5t-23 -260.5v-57q0 -164 21 -263t73 -163q47 -59 116 -86t173 -27q130 0 227 19q21 5 21 26v443h-184 q-31 0 -31 30v64q0 27 31 27h297q28 0 28 -29v-596q0 -24 -9.5 -36.5t-33.5 -18.5q-168 -43 -358 -43q-283 0 -401.5 148t-118.5 478z" />
<glyph unicode="H" horiz-adv-x="1214" d="M145 35v1255q0 35 33 35h76q33 0 33 -35v-549h641v549q0 35 33 35h75q33 0 33 -35v-1255q0 -35 -33 -35h-78q-30 0 -30 35v588h-641v-588q0 -35 -33 -35h-74q-35 0 -35 35z" />
<glyph unicode="I" horiz-adv-x="452" d="M156 35v1255q0 35 32 35h74q35 0 35 -35v-1255q0 -35 -35 -35h-72q-34 0 -34 35z" />
<glyph unicode="J" horiz-adv-x="626" d="M37 27v71q0 27 24 27h86q131 0 164 96q19 56 19 193v876q0 35 32 35h74q35 0 35 -35v-889q0 -161 -37 -245q-59 -156 -280 -156h-88q-29 0 -29 27z" />
<glyph unicode="K" horiz-adv-x="1030" d="M145 35v1255q0 35 33 35h76q33 0 33 -35v-549h135q35 0 57 31l355 524q20 29 53 29h82q21 0 27 -10q2 -4 2 -8q0 -7 -7 -17l-385 -563q-14 -21 -14 -33q0 -10 12 -30l385 -629q10 -13 4 -24t-26 -11h-99q-26 0 -41 29l-338 567q-16 27 -63 27h-139v-588q0 -35 -33 -35 h-76q-33 0 -33 35z" />
<glyph unicode="L" horiz-adv-x="774" d="M145 164v1126q0 35 33 35h74q35 0 35 -35v-1106q0 -40 17 -54.5t63 -14.5h333q31 0 31 -27v-61q0 -27 -31 -27h-368q-97 0 -142 39.5t-45 124.5z" />
<glyph unicode="M" horiz-adv-x="1529" d="M113 35q33 840 69 1229q3 34 18.5 47.5t53.5 13.5h80q42 0 57.5 -10.5t32.5 -54.5q34 -92 103 -285t127.5 -353t105.5 -282h10q140 361 336 920q17 44 32.5 54.5t57.5 10.5h80q38 0 53.5 -13.5t18.5 -47.5q44 -605 69 -1229q0 -35 -28 -35h-78q-33 0 -33 35 q-21 713 -49 1145h-15q-243 -699 -325 -897q-18 -43 -39.5 -57.5t-58.5 -14.5h-54q-37 0 -57.5 14.5t-38.5 57.5q-88 214 -326 897h-14q-25 -333 -49 -1145q0 -35 -33 -35h-78q-28 0 -28 35z" />
<glyph unicode="N" horiz-adv-x="1234" d="M145 35v1229q0 36 14.5 48.5t53.5 12.5h100q40 0 59 -14.5t36 -48.5l536 -1129h14v1157q0 35 29 35h74q29 0 29 -35v-1229q0 -36 -14.5 -48.5t-53.5 -12.5h-100q-40 0 -59 14.5t-36 48.5l-536 1125h-15v-1153q0 -35 -28 -35h-74q-29 0 -29 35z" />
<glyph unicode="O" horiz-adv-x="1191" d="M111 608v107q0 359 129 502q114 126 356 126t356 -126q129 -143 129 -502v-107q0 -354 -125 -495q-116 -131 -360 -131q-230 0 -346 116q-74 76 -106.5 201t-32.5 309zM260 635q0 -163 19 -272t73 -173q81 -94 244 -94q179 0 256 107q47 65 63.5 171t16.5 261v55 q0 160 -15 264t-65 170q-78 105 -256 105q-174 0 -252 -105q-50 -65 -67 -170t-17 -264v-55z" />
<glyph unicode="P" horiz-adv-x="1030" d="M145 35v1241q0 24 8 34t29 13q127 20 285 20q264 0 375.5 -91.5t111.5 -307.5v-26q0 -412 -477 -412q-122 0 -190 2v-473q0 -35 -33 -35h-76q-18 0 -25.5 8t-7.5 27zM287 625q49 -4 174 -4q181 0 262.5 68.5t81.5 232.5v26q0 149 -76 215t-254 66q-89 0 -147 -6 q-23 -3 -32 -14t-9 -35v-549z" />
<glyph unicode="Q" horiz-adv-x="1191" d="M111 608v107q0 359 129 502q114 126 356 126t356 -126q129 -143 129 -502v-107q0 -354 -125 -495q-92 -106 -264 -127q81 -126 271 -244q16 -9 17 -20.5t-15 -22.5l-56 -37q-17 -10 -26 -10q0 -1 -1 -1q-9 0 -30 11q-170 104 -303 320q-197 11 -299 116 q-74 76 -106.5 201t-32.5 309zM260 635q0 -163 19 -272t73 -173q81 -94 244 -94q179 0 256 107q47 65 63.5 171t16.5 261v55q0 160 -15 264t-65 170q-78 105 -256 105q-174 0 -252 -105q-50 -65 -67 -170t-17 -264v-55z" />
<glyph unicode="R" d="M145 35v1243q0 38 37 43q123 22 281 22q473 0 473 -364v-43q0 -133 -66 -222.5t-188 -121.5l336 -561q7 -11 7 -18q0 -13 -24 -13h-106q-23 0 -35 18l-317 549q-25 -2 -76 -2q-129 0 -180 2v-532q0 -35 -33 -35h-74q-35 0 -35 35zM287 684q106 -4 202 -4q155 0 226 62.5 t71 205.5v27q0 139 -74.5 196.5t-246.5 57.5q-96 0 -148 -8q-20 -3 -25 -9.5t-5 -27.5v-500z" />
<glyph unicode="S" horiz-adv-x="952" d="M84 76l16 67q7 31 43 17q144 -64 297 -64q144 0 216.5 64.5t72.5 185.5v23q0 111 -44.5 160.5t-172.5 80.5l-137 33q-150 36 -220.5 114.5t-70.5 217.5v31q0 163 105 250t288 87q171 0 293 -38q21 -6 26.5 -15.5t0.5 -29.5l-15 -50q-8 -30 -49 -18q-123 37 -252 37 q-126 0 -190 -57t-64 -168v-21q0 -103 50.5 -148.5t164.5 -72.5l129 -31q168 -40 234.5 -115.5t66.5 -226.5v-33q0 -187 -110 -280.5t-318 -93.5q-190 0 -340 59q-21 8 -21 26q0 4 1 9z" />
<glyph unicode="T" horiz-adv-x="980" d="M41 1241v57q0 27 31 27h837q18 0 24.5 -7.5t6.5 -23.5v-53q0 -31 -31 -31h-348v-1179q0 -18 -6.5 -24.5t-22.5 -6.5h-83q-16 0 -22.5 6.5t-6.5 24.5v1179h-348q-31 0 -31 31z" />
<glyph unicode="U" horiz-adv-x="1196" d="M139 430v860q0 17 9.5 26t23.5 9h76q14 0 23.5 -9t9.5 -26v-852q0 -175 71 -254q79 -88 246 -88t246 88q71 79 71 254v852q0 17 9.5 26t23.5 9h76q14 0 23.5 -9t9.5 -26v-860q0 -229 -111 -340q-111 -108 -348 -108t-348 108q-111 111 -111 340z" />
<glyph unicode="V" horiz-adv-x="1081" d="M47 1286q-1 6 -1 10q0 11 6 19q10 10 26 10h72q37 0 45 -33q134 -536 335 -1157h21q206 634 336 1157q8 33 45 33h72q16 0 25 -10q6 -7 6 -18q0 -5 -1 -11q-156 -595 -372 -1229q-13 -37 -28.5 -47t-55.5 -10h-74q-39 0 -54 10t-28 47q-206 596 -375 1229z" />
<glyph unicode="W" horiz-adv-x="1630" d="M47 1286q-1 7 -1 12q0 13 6 19q8 8 32 8h59q20 0 27.5 -1.5t13.5 -10t9 -27.5q98 -615 237 -1151h23q128 477 239 1067q7 38 24 48t58 10h78q42 0 59.5 -10.5t24.5 -47.5q118 -603 242 -1067h22q148 575 238 1149q4 28 13 34.5t36 6.5h59q24 0 32 -9q5 -6 6 -20 q0 -5 -1 -12q-117 -697 -268 -1227q-10 -37 -26 -47t-56 -10h-84q-41 0 -57.5 9.5t-26.5 47.5q-150 557 -240 1067h-22q-94 -532 -238 -1067q-13 -37 -28.5 -47t-55.5 -10h-84q-40 0 -56 10t-26 47q-170 642 -268 1229z" />
<glyph unicode="X" horiz-adv-x="1091" d="M53 31l303 628q12 25 0 50l-276 579q-16 37 24 37h74q36 0 49 -27l242 -512q12 -27 22 -36t27 -9h53q19 0 29.5 9.5t22.5 35.5l239 508q9 20 18.5 25.5t32.5 5.5h74q28 0 28 -20q0 -10 -7 -25l-271 -571q-13 -25 0 -50l301 -628q5 -10 5 -17q0 -14 -23 -14h-96 q-27 0 -35 18l-262 566q-10 24 -24 31.5t-42 7.5h-31q-29 0 -42 -7.5t-23 -31.5l-262 -566q-8 -18 -35 -18h-94q-25 0 -25 16q0 6 4 15z" />
<glyph unicode="Y" horiz-adv-x="972" d="M47 1300q-2 5 -2 10q0 15 23 15h90q32 0 37 -20q81 -278 198 -533q48 -109 86 -176h15q38 72 84 176q128 287 200 533q8 20 37 20h90q23 0 23 -15q0 -5 -2 -10q-78 -282 -226 -579q-12 -25 -143 -270v-420q0 -31 -33 -31h-75q-33 0 -33 31v420q-92 166 -144 270 q-146 292 -225 579z" />
<glyph unicode="Z" horiz-adv-x="993" d="M76 37v24q0 25 7 42.5t32 58.5l628 1048h-606q-26 0 -26 29v59q0 27 26 27h740q19 0 26.5 -7t7.5 -26v-28q0 -32 -11 -57.5t-46 -86.5l-602 -1005h625q26 0 26 -27v-61q0 -27 -26 -27h-762q-39 0 -39 37z" />
<glyph unicode="[" horiz-adv-x="546" d="M145 -158v1526q0 29 31 29h303q31 0 31 -31v-63q0 -27 -31 -27h-207v-1344h207q16 0 23.5 -6t7.5 -24v-64q0 -26 -31 -26h-303q-31 0 -31 30z" />
<glyph unicode="\" horiz-adv-x="733" d="M74 1382q-9 29 22 29h74q16 0 23.5 -5.5t13.5 -23.5l432 -1405q8 -28 -23 -28h-73q-16 0 -23.5 5t-13.5 23z" />
<glyph unicode="]" horiz-adv-x="546" d="M37 -96q0 28 31 28h206v1344h-206q-31 0 -31 29v63q0 29 31 29h307q12 0 19 -8.5t7 -22.5v-1526q0 -28 -30 -28h-303q-18 0 -24.5 7t-6.5 21v64z" />
<glyph unicode="^" d="M107.5 714.5q-2.5 9.5 9.5 28.5l323 465q12 17 22 21t36 4h67q27 0 37.5 -4t22.5 -21l325 -465q12 -19 9.5 -28.5t-21.5 -20.5l-55 -32q-18 -11 -30.5 -8.5t-25.5 22.5l-286 397h-17l-284 -397q-13 -20 -25.5 -22.5t-30.5 8.5l-55 32q-19 11 -21.5 20.5z" />
<glyph unicode="_" horiz-adv-x="1021" d="M59 -109q0 31 31 31h842q31 0 31 -31v-41q0 -12 -6 -18.5t-11 -7t-14 -0.5h-842q-18 0 -24.5 7.5t-6.5 23.5v36z" />
<glyph unicode="`" horiz-adv-x="622" d="M85.5 1332.5q-6.5 10.5 0.5 29.5l35 72q14 32 55 14l348 -170q22 -13 11 -41l-21 -45q-5 -11 -11.5 -15.5t-15 -3t-24.5 6.5l-350 133q-21 9 -27.5 19.5z" />
<glyph unicode="a" horiz-adv-x="950" d="M82 248v61q0 94 41 160.5t119 97.5q72 29 245 29h62q75 0 137 -6v117q0 113 -59.5 156.5t-188.5 43.5q-106 0 -211 -30q-23 -7 -36 -4.5t-17 20.5l-10 43q-6 18 -1.5 29.5t23.5 16.5q133 39 263 40q196 0 283 -70.5t87 -230.5v-701q0 -11 -4.5 -15.5t-17.5 -4.5h-68 q-27 0 -27 20l-4 70h-4q-68 -108 -217 -108h-102q-67 0 -125.5 19t-93.5 54q-74 74 -74 193zM217 264q0 -93 43 -133q40 -37 125 -37h84q103 0 160 54.5t57 158.5v170q-50 6 -123 6h-114q-129 0 -181 -41q-51 -39 -51 -135v-43z" />
<glyph unicode="b" horiz-adv-x="1015" d="M131 340v1024q0 22 25 22h84q24 0 24 -22v-440h4q36 45 103.5 71.5t154.5 26.5q205 0 301.5 -115t96.5 -360v-94q0 -133 -27 -225t-81 -145.5t-127 -77t-173 -23.5q-220 0 -309 106q-76 91 -76 252zM264 354q0 -67 10 -107t33 -73q56 -78 211 -78q153 0 211 80 q59 82 59 293v70q0 224 -81 305q-63 63 -195 63t-193 -61q-33 -33 -44 -77.5t-11 -133.5v-281z" />
<glyph unicode="c" horiz-adv-x="843" d="M92 475v68q0 271 125 387q99 92 277 92q81 0 162.5 -26.5t129.5 -63.5q7 -6 7 -17q0 -8 -5 -16l-34 -57q-11 -19 -35 -4q-113 69 -225 69q-119 0 -185 -63q-36 -36 -55.5 -95.5t-23 -106t-3.5 -118.5v-35q0 -121 15 -195.5t51 -119.5q61 -78 207 -78q100 0 198 39 q41 15 50 -14l14 -47q7 -20 1 -29.5t-36 -21.5q-42 -17 -108 -29t-125 -12q-189 0 -283 88q-66 60 -92.5 159.5t-26.5 245.5z" />
<glyph unicode="d" horiz-adv-x="1015" d="M92 451v96q0 245 96 360t301 115q87 0 155 -26.5t104 -71.5h4v440q0 22 24 22h84q25 0 25 -22v-1028q0 -157 -76 -248q-89 -106 -309 -106q-110 0 -183 21.5t-125.5 74.5t-76 144t-23.5 229zM227 467q0 -123 17.5 -194t56.5 -113q32 -35 77.5 -49.5t119.5 -14.5 q155 0 211 78q23 33 33 73t10 107v281q0 129 -63 200.5t-185 71.5q-73 0 -120 -16t-81 -53q-76 -85 -76 -301v-70z" />
<glyph unicode="e" horiz-adv-x="929" d="M92 461v82q0 248 87.5 363.5t297.5 115.5q177 0 264 -84q47 -45 68.5 -108t21.5 -158v-168q0 -43 -16.5 -60.5t-58.5 -17.5h-529q6 -185 65 -257.5t204 -72.5q122 0 225 41q40 15 49 -14l14 -47q3 -10 3 -19t-11.5 -18.5t-36.5 -18.5q-101 -38 -243 -38 q-223 0 -313.5 113t-90.5 366zM227 543h441q12 0 17 1.5t8 8t3 20.5v78q0 74 -10.5 116.5t-36.5 74.5q-53 65 -170 65q-91 0 -143.5 -31t-80 -111t-28.5 -222z" />
<glyph unicode="f" horiz-adv-x="593" d="M41 909v41q0 24 20 27l125 27v63q0 136 43 207q43 72 119.5 101.5t155.5 29.5q94 0 164 -19q27 -8 24 -30l-10 -58q-3 -15 -10.5 -19t-24.5 -1q-66 12 -123 12q-95 0 -143 -39q-62 -48 -62 -186v-61h220q20 0 20 -21v-76q0 -20 -20 -20h-220v-862q0 -25 -22 -25h-86 q-11 0 -18 7t-7 18v862h-125q-11 0 -15.5 4.5t-4.5 17.5z" />
<glyph unicode="g" horiz-adv-x="970" d="M82 -266l22 61q3 12 14 15t23 -3q156 -75 314 -75q150 0 217 46t67 165v16q0 84 -36.5 142.5t-114.5 99.5q-51 -11 -121 -11q-174 0 -272 76q-107 91 -107 299v84q0 213 107 301q89 72 272 72q45 0 65 -2q52 149 230 149h49q29 0 29 -28v-70q0 -8 -1 -11.5t-6.5 -7 t-17.5 -3.5h-61q-79 0 -103 -52q52 -19 90 -47q107 -88 107 -301v-84q0 -180 -88 -278q-26 -26 -53 -41q176 -112 176 -287v-22q0 -164 -111 -242t-303 -78q-196 0 -371 84q-12 6 -16 13q-1 4 -1 9t1 11zM227 582q0 -95 23 -162q24 -67 77 -96t140 -29q90 0 143.5 29 t77.5 96q21 62 21 164v51q0 101 -21 160q-24 68 -76.5 95.5t-144.5 27.5q-89 0 -141 -27.5t-76 -95.5q-23 -64 -23 -160v-53z" />
<glyph unicode="h" horiz-adv-x="1032" d="M137 31v1333q0 22 25 22h84q24 0 24 -22v-449q27 36 72 62q77 45 193 45q238 0 317 -137q49 -83 49 -264v-592q0 -18 -8.5 -23.5t-28.5 -5.5h-59q-21 0 -29 6t-8 23v600q0 96 -21 151.5t-73 87.5q-61 39 -166 39q-142 0 -201 -86q-37 -55 -37 -159v-631q0 -18 -8 -24.5 t-29 -6.5h-63q-19 0 -26 7t-7 24z" />
<glyph unicode="i" horiz-adv-x="468" d="M137 1262v12q0 50 25.5 73t68.5 23h9q90 0 90 -96v-12q0 -49 -24.5 -74t-65.5 -25h-9q-50 0 -72 23.5t-22 75.5zM168 16v965q0 23 25 23h83q25 0 25 -23v-965q0 -16 -18 -16h-99q-16 0 -16 16z" />
<glyph unicode="j" horiz-adv-x="471" d="M-121 -272q0 24 23 24h69q123 0 168 94q31 70 31 177v958q0 23 25 23h84q24 0 24 -23v-969q0 -150 -51 -237q-39 -69 -104.5 -104.5t-172.5 -35.5h-73q-23 0 -23 25v68zM139 1262v12q0 50 25.5 73t68.5 23h9q90 0 90 -96v-12q0 -49 -24.5 -74t-65.5 -25h-9 q-50 0 -72 23.5t-22 75.5z" />
<glyph unicode="k" horiz-adv-x="858" d="M137 16v1348q0 22 25 22h84q24 0 24 -22v-770h103q18 0 29 6t24 27l238 354q14 23 38 23h89q13 0 18 -8t-4 -25l-291 -422q-11 -17 0 -33l301 -493q4 -7 4 -11q0 -3 -2 -6q-4 -6 -16 -6h-107q-16 0 -24 14l-258 437q-13 22 -43 22h-99v-457q0 -16 -18 -16h-96 q-19 0 -19 16z" />
<glyph unicode="l" horiz-adv-x="516" d="M147 236v1128q0 22 25 22h84q25 0 25 -22v-1096q0 -41 0.5 -59.5t4.5 -38.5t13 -31q17 -22 74 -22h55q9 0 13 -1t8 -6t4 -16v-69q0 -25 -21 -25h-78q-110 0 -157 47q-50 53 -50 189z" />
<glyph unicode="m" horiz-adv-x="1646" d="M141 31v950q0 23 23 23h59q22 0 25 -23l10 -82h4q26 45 84 78q77 45 191 45q117 0 188.5 -34t116.5 -107h4q109 141 317 141q187 0 271 -96q82 -95 82 -305v-590q0 -18 -7.5 -24.5t-25.5 -6.5h-70q-16 0 -23.5 6.5t-7.5 24.5v598q0 142 -51 207q-59 71 -188 71 q-166 0 -258 -123q12 -80 12 -163v-590q0 -17 -7 -24t-24 -7h-69q-19 0 -26 7t-7 24v598q0 150 -62 215q-60 63 -192 63q-140 0 -199 -86q-37 -55 -37 -159v-631q0 -31 -30 -31h-72q-18 0 -24.5 6.5t-6.5 24.5z" />
<glyph unicode="n" horiz-adv-x="1036" d="M141 31v950q0 23 21 23h61q22 0 25 -23l10 -82h4q26 45 84 78q77 45 193 45q238 0 317 -137q49 -83 49 -264v-586q0 -35 -39 -35h-57q-24 0 -30.5 6.5t-6.5 28.5v598q0 96 -21 151.5t-73 87.5q-61 39 -166 39q-142 0 -201 -86q-37 -55 -37 -159v-635q0 -31 -36 -31h-64 q-19 0 -26 7t-7 24z" />
<glyph unicode="o" horiz-adv-x="972" d="M92 461v82q0 278 107 385q97 94 286 94q192 0 289 -94q107 -107 107 -385v-82q0 -276 -107 -383q-99 -96 -289 -96q-187 0 -286 96q-107 107 -107 383zM227 483q0 -149 21 -225q25 -87 83.5 -124.5t153.5 -37.5q96 0 155.5 37.5t84.5 124.5q20 73 20 225v39 q0 153 -20 226q-25 87 -84 123t-156 36q-96 0 -154 -36t-83 -123q-21 -76 -21 -226v-39z" />
<glyph unicode="p" horiz-adv-x="1021" d="M135 -340v1321q0 23 21 23h61q22 0 25 -23l12 -82h4q88 123 297 123q200 0 287.5 -110t87.5 -349v-106q0 -115 -18.5 -199.5t-60.5 -148t-116.5 -95.5t-181.5 -32q-111 0 -175.5 27.5t-105.5 80.5h-4v-430q0 -22 -20 -22h-92q-21 0 -21 22zM268 360q0 -130 71.5 -197 t201.5 -67q72 0 118 17.5t80 58.5q33 41 44.5 107.5t11.5 187.5v78q0 112 -13.5 180.5t-50.5 112.5q-60 69 -194 69q-141 0 -205 -65.5t-64 -192.5v-289z" />
<glyph unicode="q" horiz-adv-x="1021" d="M92 442v97q0 180 43.5 286.5t127.5 151.5t222 45q197 0 279 -123h4l10 80q3 25 31 25h49q16 0 22.5 -5.5t6.5 -21.5v-1317q0 -22 -21 -22h-92q-20 0 -20 22v430h-4q-87 -108 -271 -108q-208 0 -297.5 107t-89.5 353zM227 453q0 -210 68 -287q32 -38 78.5 -54t122.5 -16 q123 0 190.5 63t67.5 183v303q0 126 -69 194t-198 68q-68 0 -111 -14t-73 -47q-76 -82 -76 -326v-67z" />
<glyph unicode="r" horiz-adv-x="620" d="M141 27v954q0 23 25 23h59q22 0 25 -23l8 -107h4q71 130 238 130h53q27 0 27 -25v-70q0 -22 -27 -22h-55q-75 0 -118 -21t-69 -63q-37 -59 -37 -162v-614q0 -27 -34 -27h-66q-33 0 -33 27z" />
<glyph unicode="s" horiz-adv-x="821" d="M88 66l16 59q8 32 39 20q126 -49 248 -49q124 0 174 41q51 42 51 131v13q0 56 -12 86.5t-43 50.5q-36 21 -143 43l-58 10q-103 18 -159 51q-105 59 -105 213v21q0 266 328 266q123 0 229 -29q37 -9 31 -37l-12 -53q-9 -37 -47 -26q-111 30 -203 30q-118 0 -162 -41 q-41 -36 -41 -106v-15q0 -67 33 -100q21 -21 55.5 -34.5t104.5 -26.5l53 -11q172 -34 223 -98q51 -67 51 -180v-21q0 -121 -57 -190q-80 -102 -291 -102q-76 0 -152.5 14t-125.5 35q-26 10 -26 29q0 3 1 6z" />
<glyph unicode="t" horiz-adv-x="647" d="M31 909v41q0 24 20 27l125 27v231q0 11 7 18t18 7h86q22 0 22 -25v-231h240q20 0 20 -21v-76q0 -20 -20 -20h-240v-553q0 -124 37 -168q39 -51 150 -51h73q8 0 12 -1t8.5 -6t4.5 -16v-69q0 -23 -25 -23h-96q-159 0 -229 82q-68 80 -68 235v570h-125q-11 0 -15.5 4.5 t-4.5 17.5z" />
<glyph unicode="u" horiz-adv-x="1001" d="M131 289v682q0 14 8.5 23.5t20.5 9.5h76q28 0 28 -29v-670q0 -62 12 -98t41 -62q54 -49 185 -49q127 0 188 58q26 25 36.5 57.5t10.5 93.5v672q0 12 7 19.5t18 7.5h86q22 0 22 -27v-688q0 -156 -90 -234q-45 -39 -109 -56t-169 -17q-191 0 -279 73q-92 77 -92 234z" />
<glyph unicode="v" horiz-adv-x="894" d="M47 975q-1 4 -1 8q0 7 5 13q7 8 19 8h77q28 0 33 -25q109 -443 258 -875h19q149 432 258 875q5 25 33 25h77q12 0 19 -8q5 -5 5 -13q0 -4 -1 -8q-98 -427 -273 -897q-17 -45 -36 -61.5t-54 -16.5h-75q-35 0 -54.5 16.5t-36.5 61.5q-172 463 -272 897z" />
<glyph unicode="w" horiz-adv-x="1366" d="M43 975q-1 5 -1 9q0 10 6 14q8 6 32 6h63q19 0 26.5 -5t10.5 -20q75 -431 191 -875h10q95 346 186 793q12 57 70 57h92q58 0 70 -57q91 -447 186 -793h10q116 444 191 875q3 19 9 22t28 3h63q24 0 32 -6q6 -4 6 -14q0 -4 -1 -9q-65 -340 -209 -891q-11 -43 -30.5 -63.5 t-55.5 -20.5h-70q-38 0 -59 18t-33 66q-97 361 -176 747h-14q-79 -386 -176 -747q-12 -48 -33 -66t-59 -18h-70q-36 0 -55.5 20.5t-30.5 63.5q-144 551 -209 891z" />
<glyph unicode="x" horiz-adv-x="886" d="M47 6q-2 2 -2 6q0 5 4 11l238 471q11 19 0 41l-217 436q-8 17 -3.5 25t17.5 8h82q28 0 39 -23l180 -371q3 -4 6 -10.5t5 -9.5t5 -6.5t7.5 -4.5t11.5 -1h43q8 0 13.5 1t9.5 5.5t5.5 6.5t5.5 9.5t5 9.5l182 371q14 23 39 23h82q13 0 18 -8t-4 -25l-223 -436q-11 -22 0 -41 l242 -471q3 -6 3 -11q1 -3 -1 -6q-4 -6 -17 -6h-106q-17 0 -25 14l-192 412q-13 33 -43 33h-31q-18 0 -25.5 -6.5t-15.5 -26.5l-190 -412q-8 -14 -25 -14h-107q-12 0 -16 6z" />
<glyph unicode="y" horiz-adv-x="876" d="M43 977q-1 5 -1 9q0 18 24 18h92q19 0 22 -19q45 -220 109 -455q36 -137 102 -331q12 -37 26.5 -51.5t39.5 -14.5h8q71 194 121.5 395.5t101.5 458.5q3 17 23 17h94q11 0 17 -6q4 -4 4 -9q0 -2 -1 -4q-94 -446 -193.5 -741.5t-240.5 -608.5q-8 -18 -25 -18q-8 0 -18 4 l-67 25q-12 5 -15 16t4 25q89 176 150 327q-50 1 -81 31t-56 98q-66 181 -115 353q-73 258 -125 481z" />
<glyph unicode="z" horiz-adv-x="808" d="M68 20v35q0 33 36 90l451 744h-453q-20 0 -20 20v74q0 21 20 21h607q20 0 20 -21v-29q0 -22 -10 -45t-43 -78l-440 -716h491q21 0 21 -21v-74q0 -20 -21 -20h-639q-20 0 -20 20z" />
<glyph unicode="{" horiz-adv-x="616" d="M115 582v53q0 17 5 24.5t17 10.5q82 23 119 64t37 124v305q2 124 49 191t139 67h86q27 0 27 -28v-68q0 -25 -23 -25h-65q-50 0 -67 -35.5t-19 -134.5v-256q0 -108 -38 -168.5t-124 -93.5v-6q88 -39 124.5 -97.5t37.5 -174.5v-262q2 -99 19 -134.5t67 -35.5h65 q23 0 23 -27v-68q0 -15 -5 -20.5t-20 -5.5h-88q-92 0 -139 67t-49 191v305q0 90 -36.5 132.5t-119.5 72.5q-14 6 -18 12.5t-4 20.5z" />
<glyph unicode="|" horiz-adv-x="419" d="M145 -10v1388q0 35 33 35h62q20 0 27 -8t7 -27v-1388q0 -35 -32 -35h-68q-29 0 -29 35z" />
<glyph unicode="}" horiz-adv-x="616" d="M23 -125q0 27 22 27h66q50 0 68 36t18 134v262q0 116 36 174.5t125 97.5v6q-85 32 -123 93t-38 169v256q0 98 -18 134t-68 36h-66q-22 0 -22 25v68q0 15 5.5 21.5t20.5 6.5h86q93 0 141 -67.5t48 -190.5v-305q0 -84 36.5 -124.5t118.5 -63.5q23 -6 23 -35v-53 q0 -14 -4.5 -20.5t-18.5 -12.5q-83 -30 -119 -72.5t-36 -132.5v-305q0 -123 -48 -190.5t-141 -67.5h-88q-15 0 -19.5 5.5t-4.5 20.5v68z" />
<glyph unicode="~" d="M49 592q63 125 132.5 182t152.5 57q48 0 82.5 -14t93.5 -53l115 -76q39 -26 59.5 -35.5t44.5 -9.5q85 0 168 166q15 30 45 10l55 -35q20 -12 23 -24.5t-8 -34.5q-112 -227 -267 -227q-102 0 -196 65l-109 72q-31 21 -44 29t-29 14t-33 6q-84 0 -166 -162 q-9 -18 -20.5 -20.5t-30.5 8.5l-60 35q-25 14 -8 47z" />
<glyph unicode="&#xa1;" horiz-adv-x="438" d="M123 897v45q0 39 23.5 59.5t62.5 20.5h20q40 0 63 -20.5t23 -59.5v-45q0 -38 -23 -59t-63 -21h-20q-39 0 -62.5 21t-23.5 59zM135 -291l21 967q0 35 28 35h68q33 0 33 -35l20 -967q0 -35 -29 -35h-108q-33 0 -33 35z" />
<glyph unicode="&#xa2;" d="M180 481v56q0 271 125 387q88 81 234 90v184q0 27 30 27h37q31 0 31 -27v-186q68 -7 132.5 -31t104.5 -55q6 -5 7.5 -14.5t-4.5 -18.5l-35 -57q-11 -20 -35 -5q-84 50 -170 66v-793q61 5 149 37q41 15 50 -14l14 -47q7 -20 1 -29.5t-36 -21.5q-70 -29 -178 -39v-172 q0 -27 -31 -27h-37q-30 0 -30 27v172q-160 9 -240 86q-66 60 -92.5 159.5t-26.5 245.5zM315 496q0 -122 15 -196.5t51 -119.5q52 -67 158 -76v795q-87 -9 -142 -61q-36 -36 -55.5 -95.5t-23 -106t-3.5 -118.5v-22z" />
<glyph unicode="&#xa3;" d="M104 35v37q0 13 5.5 22t10.5 13t23 16q69 49 115.5 140t46.5 198v166h-108q-18 0 -24.5 6t-6.5 20v37q0 18 6.5 25t26.5 10l106 20v252q0 96 21 160t69 107q88 79 283 79q131 0 246 -45q28 -11 20 -38l-16 -54q-8 -32 -39 -20q-100 43 -211 43q-127 0 -180 -47 q-49 -43 -49 -185v-256h356q21 0 29 -7t8 -27v-48q0 -20 -8 -26t-29 -6h-359v-142q0 -235 -151 -366v-4h627q22 0 29 -7.5t7 -29.5v-45q0 -33 -34 -33h-779q-23 0 -32 8t-9 27z" />
<glyph unicode="&#xa4;" d="M74 938q-22 19 0 41l53 51q20 20 43 0l145 -143q95 67 220 67q118 0 215 -65l145 141q23 20 43 0l51 -49q26 -22 0 -45l-145 -143q67 -96 67 -213q0 -122 -67 -218l145 -141q26 -23 0 -45l-51 -49q-20 -20 -43 0l-145 141q-94 -63 -215 -63q-128 0 -220 65l-145 -143 q-23 -20 -43 0l-51 49q-26 22 0 45l145 144q-63 95 -63 215q0 117 65 211zM293 580q0 -108 70 -178t172 -70q101 0 171 70t70 178q0 107 -70 177t-171 70t-171.5 -70t-70.5 -177z" />
<glyph unicode="&#xa5;" d="M92 1300q-4 12 3 18.5t18 6.5h90q29 0 37 -20q137 -400 284 -676h15q147 276 284 676q7 20 37 20h90q11 0 18 -6.5t3 -18.5q-76 -223 -145.5 -378.5t-168.5 -331.5h195q31 0 31 -31v-57q0 -27 -31 -27h-250v-119h250q31 0 31 -30v-58q0 -12 -6 -18.5t-11 -7t-14 -0.5 h-250v-213q0 -17 -8 -23t-25 -6h-80q-16 0 -22 5.5t-6 23.5v213h-252q-18 0 -24.5 7t-6.5 23v54q0 30 31 30h252v119h-252q-18 0 -24.5 7.5t-6.5 23.5v53q0 31 31 31h194q-99 179 -168 334.5t-143 375.5z" />
<glyph unicode="&#xa6;" horiz-adv-x="419" d="M145 -10v469q0 35 33 35h64q32 0 32 -35v-469q0 -35 -28 -35h-72q-29 0 -29 35zM145 909v469q0 35 29 35h72q28 0 28 -35v-469q0 -35 -32 -35h-64q-33 0 -33 35z" />
<glyph unicode="&#xa7;" horiz-adv-x="886" d="M129 59l14 66q9 33 37 20q123 -47 232 -47q127 0 174 39q43 34 43 105v12q0 62 -36.5 93.5t-121.5 51.5l-113 25q-122 26 -175.5 83t-53.5 161v18q0 62 33 110t94 76q-67 30 -96 81t-29 132v19q0 132 102 192q79 47 220 47q116 0 215 -26q34 -9 28 -35l-14 -61 q-8 -29 -41 -19q-109 31 -186 31q-98 0 -140 -25q-55 -31 -55 -110v-13q0 -58 35 -86.5t113 -44.5l127 -26q120 -25 172.5 -77.5t52.5 -156.5v-18q0 -132 -131 -197q129 -60 129 -217v-18q0 -125 -78 -191q-85 -71 -268 -71q-70 0 -142 13t-118 32q-28 12 -23 32zM258 678 q0 -62 29 -92t110 -47l123 -27q107 46 107 156v12q0 57 -30.5 87t-117.5 48l-102 21q-119 -33 -119 -146v-12z" />
<glyph unicode="&#xa8;" horiz-adv-x="690" d="M82 1288v47q0 38 23.5 59t62.5 21h20q42 0 66.5 -21t24.5 -59v-47q0 -39 -24.5 -59.5t-66.5 -20.5h-20q-39 0 -62.5 20.5t-23.5 59.5zM414 1288v47q0 38 23.5 59t62.5 21h20q41 0 64.5 -21t23.5 -59v-47q0 -39 -23 -59.5t-65 -20.5h-20q-39 0 -62.5 20.5t-23.5 59.5z" />
<glyph unicode="&#xa9;" horiz-adv-x="1648" d="M82 713q0 167 54.5 306.5t151.5 234.5t234.5 147.5t300.5 52.5q218 0 386 -90t262 -259t94 -392t-94 -392t-262 -259.5t-386 -90.5t-386 90.5t-261.5 259.5t-93.5 392zM219 713q0 -282 164.5 -447.5t439.5 -165.5t439.5 165.5t164.5 447.5q0 281 -164.5 446.5 t-439.5 165.5t-439.5 -165.5t-164.5 -446.5zM502 684v53q0 192 80 293q81 100 254 100q134 0 229 -65q9 -6 11.5 -16t-3.5 -19l-33 -51q-14 -23 -34 -10q-79 53 -170 53q-106 0 -150 -55q-53 -64 -53 -244v-27q0 -92 12 -141t39 -86q48 -66 156 -66q75 0 159 33 q29 12 37 -10l17 -55q5 -14 -0.5 -22t-26.5 -17q-94 -39 -190 -39q-154 0 -232 72q-102 91 -102 319z" />
<glyph unicode="&#xaa;" horiz-adv-x="622" d="M66 762v37q0 92 57 137t188 45h51q32 0 68 -4v53q0 62 -30 84.5t-105 22.5q-69 0 -141 -21q-28 -9 -31 10l-10 50q-6 22 16 28q88 25 172 25q125 0 182.5 -42.5t57.5 -139.5v-420q0 -15 -17 -15h-67q-19 0 -19 15l-4 43q-45 -68 -133 -68h-49q-186 0 -186 160zM180 776 q0 -43 18.5 -61.5t65.5 -18.5h43q123 0 123 129v58q-32 4 -63 4h-66q-72 0 -96.5 -19.5t-24.5 -66.5v-25z" />
<glyph unicode="&#xab;" horiz-adv-x="991" d="M78 467v16q0 32 18 47l281 234q34 30 57 10l39 -37q24 -21 -6 -51l-227 -211l227 -211q30 -30 6 -51l-39 -37q-23 -20 -57 10l-281 234q-18 15 -18 47zM485 467v16q0 31 19 47l280 234q35 30 58 10l39 -37q23 -21 -7 -51l-227 -211l227 -211q30 -30 7 -51l-39 -37 q-23 -20 -58 10l-280 234q-19 16 -19 47z" />
<glyph unicode="&#xac;" d="M80 498v71q0 31 31 31h841q31 0 31 -31v-450q0 -31 -31 -31h-75q-27 0 -27 31v348h-739q-18 0 -24.5 7.5t-6.5 23.5z" />
<glyph unicode="&#xad;" horiz-adv-x="600" d="M72 496v75q0 31 30 31h396q30 0 30 -31v-79q0 -27 -30 -27h-396q-18 0 -24 7.5t-6 23.5z" />
<glyph unicode="&#xae;" horiz-adv-x="1648" d="M82 713q0 167 54.5 306.5t151.5 234.5t234.5 147.5t300.5 52.5q218 0 386 -90t262 -259t94 -392t-94 -392t-262 -259.5t-386 -90.5t-386 90.5t-261.5 259.5t-93.5 392zM219 713q0 -282 164.5 -447.5t439.5 -165.5t439.5 165.5t164.5 447.5q0 281 -164.5 446.5 t-439.5 165.5t-439.5 -165.5t-164.5 -446.5zM567 322v778q0 31 35 37q74 10 189 10q51 0 94 -7t83.5 -24t69 -43.5t45.5 -69.5t17 -98v-22q0 -118 -72 -183q-40 -37 -98 -51l174 -323q5 -9 0.5 -17t-17.5 -8h-90q-17 0 -28 21l-162 313h-10q-72 0 -107 2v-315q0 -21 -18 -21 h-86q-19 0 -19 21zM690 745q44 -6 96 -6q106 0 148 39q35 32 35 109v16q0 72 -40.5 105.5t-131.5 33.5q-55 0 -84 -4q-23 -3 -23 -28v-265z" />
<glyph unicode="&#xaf;" horiz-adv-x="686" d="M82 1272v67q0 31 31 31h460q31 0 31 -31v-71q0 -27 -31 -27h-460q-18 0 -24.5 7.5t-6.5 23.5z" />
<glyph unicode="&#xb0;" horiz-adv-x="649" d="M78 1229q0 103 69 174.5t175 71.5t175.5 -71.5t69.5 -174.5t-69.5 -174.5t-175.5 -71.5t-175 71.5t-69 174.5zM195 1229q0 -58 37.5 -96.5t89.5 -38.5q55 0 91 38t36 97q0 60 -35.5 97.5t-91.5 37.5t-91.5 -37.5t-35.5 -97.5z" />
<glyph unicode="&#xb1;" d="M80 31v71q0 31 31 31h841q31 0 31 -31v-75q0 -27 -31 -27h-841q-18 0 -24.5 7.5t-6.5 23.5zM82 717v71q0 31 31 31h354v344q0 18 7.5 24.5t23.5 6.5h71q31 0 31 -31v-344h354q31 0 31 -31v-75q0 -27 -31 -27h-354v-344q0 -31 -31 -31h-75q-27 0 -27 31v344h-354 q-18 0 -24.5 7.5t-6.5 23.5z" />
<glyph unicode="&#xb2;" horiz-adv-x="675" d="M92 942v27q0 113 31.5 177.5t107.5 102.5l109 54q52 26 71 52t19 70v7q0 52 -31 72t-94 20q-68 0 -139 -23q-27 -8 -33 17l-10 53q-3 20 20 28q82 29 185 29q107 0 166 -47.5t59 -136.5v-12q0 -76 -30 -123t-109 -86l-101 -49q-57 -28 -77.5 -59.5t-20.5 -84.5v-16h309 q19 0 19 -17v-63q0 -19 -19 -19h-405q-27 0 -27 27z" />
<glyph unicode="&#xb3;" horiz-adv-x="675" d="M119 961l10 47q5 22 29 14q74 -29 153 -29q66 0 102 27.5t36 77.5v12q0 59 -36.5 84t-125.5 25h-49q-19 0 -19 16v65q0 19 19 19h38q85 0 122.5 26.5t37.5 77.5v13q0 44 -25 66t-85 22q-62 0 -127 -21q-26 -9 -31 13l-12 51q-5 19 18 28q85 29 178 29q98 0 152.5 -42.5 t54.5 -129.5v-16q0 -131 -102 -160v-6q118 -33 118 -154v-16q0 -101 -66.5 -152t-193.5 -51q-91 0 -184 35q-17 7 -12 29z" />
<glyph unicode="&#xb4;" horiz-adv-x="622" d="M88 1237q-11 29 10 41l348 170q42 19 56 -14l35 -72q7 -19 0.5 -29.5t-27.5 -19.5l-350 -133q-16 -5 -24.5 -6.5t-15 3t-11.5 15.5z" />
<glyph unicode="&#xb6;" horiz-adv-x="1193" d="M96 1040q0 159 105 265t280 106h586q18 0 24.5 -7.5t6.5 -23.5v-59q0 -31 -31 -31h-129v-1497q0 -21 -8 -27t-29 -6h-53q-21 0 -29 6t-8 27v1497h-213v-1497q0 -21 -8 -27t-29 -6h-67q-21 0 -29 6t-8 27v879q-157 0 -259 101t-102 267z" />
<glyph unicode="&#xb7;" horiz-adv-x="393" d="M98 573v50q0 38 24 58.5t64 20.5h21q42 0 65 -20.5t23 -58.5v-50q0 -79 -88 -79h-21q-41 0 -64.5 20t-23.5 59z" />
<glyph unicode="&#xb8;" horiz-adv-x="544" d="M84 -430l8 61q6 23 25 17q67 -19 112 -19q66 0 93.5 17t27.5 67q0 33 -15 48.5t-54 15.5q-45 0 -78 -8q-22 -6 -31 8l-16 26q-7 13 -4 31l24 154q5 12 19 12h69q18 0 15 -14l-17 -117q23 4 68 4q64 0 103.5 -39t39.5 -117q0 -97 -58.5 -143.5t-181.5 -46.5q-74 0 -135 20 q-16 7 -14 23z" />
<glyph unicode="&#xb9;" horiz-adv-x="675" d="M76 1464q-14 20 10 35l129 88q26 18 37 20.5t43 2.5h59q25 0 35 -8.5t10 -30.5v-557h164q23 0 23 -23v-55q0 -21 -23 -21h-444q-23 0 -23 23v55q0 21 23 21h162v483h-9l-127 -90q-19 -14 -32 4z" />
<glyph unicode="&#xba;" horiz-adv-x="647" d="M70 891v49q0 158 59.5 223.5t194.5 65.5t194.5 -65.5t59.5 -223.5v-49q0 -158 -59.5 -223.5t-194.5 -65.5t-194.5 65.5t-59.5 223.5zM184 907q0 -124 30.5 -169.5t109.5 -45.5t109 45t30 170v13q0 125 -30 172t-109 47t-109.5 -47t-30.5 -172v-13z" />
<glyph unicode="&#xbb;" horiz-adv-x="991" d="M152 213q-24 21 6 51l227 211l-227 211q-30 30 -6 51l38 37q23 20 58 -10l280 -234q19 -16 19 -47v-16q0 -31 -19 -47l-280 -234q-35 -30 -58 -10zM559 213q-24 21 6 51l228 211l-228 211q-30 30 -6 51l39 37q23 20 57 -10l281 -234q18 -15 18 -47v-16q0 -32 -18 -47 l-281 -234q-34 -30 -57 -10z" />
<glyph unicode="&#xbc;" horiz-adv-x="1638" d="M96 1180q-14 19 10 34l130 89q7 5 12.5 8t9.5 6t9 4t7.5 2t8.5 1.5t8 0.5h11h13h60q25 0 35 -8.5t10 -30.5v-557h164q22 0 22 -22v-56q0 -20 -22 -20h-445q-22 0 -22 22v56q0 20 22 20h162v483h-8l-127 -90q-20 -14 -33 4zM364 -18.5q-4 10.5 5 24.5l766 1313 q13 24 45 24h71q15 0 19 -10.5t-4 -23.5l-766 -1313q-17 -25 -45 -25h-72q-15 0 -19 10.5zM913 195v53q0 15 21 45l231 358q17 26 35 35.5t45 9.5h90q41 0 41 -37v-387h74q18 0 18 -18v-59q0 -21 -18 -21h-74v-156q0 -18 -18 -18h-88q-19 0 -19 18v156h-311q-27 0 -27 21z M1040 272h211v322h-4z" />
<glyph unicode="&#xbd;" horiz-adv-x="1638" d="M96 1180q-14 19 10 34l130 89q7 5 12.5 8t9.5 6t9 4t7.5 2t8.5 1.5t8 0.5h11h13h60q25 0 35 -8.5t10 -30.5v-557h164q22 0 22 -22v-56q0 -20 -22 -20h-445q-22 0 -22 22v56q0 20 22 20h162v483h-8l-127 -90q-20 -14 -33 4zM364 -18.5q-4 10.5 5 24.5l766 1313 q13 24 45 24h71q15 0 19 -10.5t-4 -23.5l-766 -1313q-17 -25 -45 -25h-72q-15 0 -19 10.5zM1053 27v26q0 114 31.5 178.5t107.5 102.5l108 53q52 26 71.5 52.5t19.5 70.5v6q0 52 -31 72t-94 20q-72 0 -140 -22q-26 -8 -32 16l-11 53q-3 21 21 29q82 29 184 29 q106 0 165.5 -48t59.5 -137v-12q0 -76 -30 -123t-109 -86l-100 -49q-57 -29 -77.5 -60t-20.5 -83v-17h309q18 0 18 -16v-64q0 -18 -18 -18h-406q-26 0 -26 27z" />
<glyph unicode="&#xbe;" horiz-adv-x="1638" d="M154 680l10 47q5 22 29 14q72 -28 153 -28q66 0 101.5 27t35.5 77v12q0 59 -36 84t-125 25h-50q-18 0 -18 16v66q0 18 18 18h39q160 0 160 105v12q0 44 -25.5 66t-85.5 22q-65 0 -127 -20q-25 -8 -30 12l-13 51q-6 20 19 29q82 28 178 28q98 0 152.5 -42.5t54.5 -129.5 v-16q0 -131 -102 -160v-6q118 -33 118 -153v-17q0 -101 -66.5 -152t-193.5 -51q-91 0 -184 35q-17 7 -12 29zM364 -18.5q-4 10.5 5 24.5l766 1313q13 24 45 24h71q15 0 19 -10.5t-4 -23.5l-766 -1313q-17 -25 -45 -25h-72q-15 0 -19 10.5zM913 195v53q0 15 21 45l231 358 q17 26 35 35.5t45 9.5h90q41 0 41 -37v-387h74q18 0 18 -18v-59q0 -21 -18 -21h-74v-156q0 -18 -18 -18h-88q-19 0 -19 18v156h-311q-27 0 -27 21zM1040 272h211v322h-4z" />
<glyph unicode="&#xbf;" horiz-adv-x="905" d="M78 -16v32q0 110 52 185t173 153l115 76q52 35 70 85t18 163q0 33 35 33h67q29 0 29 -33q0 -102 -15 -165t-48.5 -106.5t-96.5 -84.5l-121 -78q-78 -50 -106 -117q-23 -53 -23 -115v-16q0 -111 66.5 -166t187.5 -55q140 0 267 47q37 14 47 -15l14 -51q9 -31 -27 -43 q-154 -53 -315 -53q-194 0 -291.5 87.5t-97.5 236.5zM475 897v45q0 39 23 59.5t63 20.5h21q39 0 62.5 -20.5t23.5 -59.5v-45q0 -38 -23.5 -59t-62.5 -21h-21q-40 0 -63 21t-23 59z" />
<glyph unicode="&#xc0;" horiz-adv-x="1081" d="M45 35q108 433 266 919q66 199 111 314q15 38 29 47.5t53 9.5h74q39 0 54 -10t30 -47q27 -68 108 -314q166 -520 264 -915q9 -39 -26 -39h-80q-19 0 -28 7t-13 26q-51 202 -101 381h-493l-98 -381q-8 -33 -41 -33h-82q-18 0 -24.5 7.5t-2.5 27.5zM281 1634l34 72 q14 33 56 14l348 -170q21 -12 10 -41l-20 -45q-9 -15 -19.5 -17.5t-32.5 5.5l-350 133q-40 15 -26 49zM328 537h426q-32 110 -109 368q-40 136 -92 287h-25q-52 -151 -92 -287q-67 -225 -108 -368z" />
<glyph unicode="&#xc1;" horiz-adv-x="1081" d="M45 35q108 433 266 919q66 199 111 314q15 38 29 47.5t53 9.5h74q39 0 54 -10t30 -47q27 -68 108 -314q166 -520 264 -915q9 -39 -26 -39h-80q-19 0 -28 7t-13 26q-51 202 -101 381h-493l-98 -381q-8 -33 -41 -33h-82q-18 0 -24.5 7.5t-2.5 27.5zM328 537h426 q-32 110 -109 368q-40 136 -92 287h-25q-52 -151 -92 -287q-67 -225 -108 -368zM371 1509q-11 29 10 41l348 170q41 18 55 -14l35 -72q14 -34 -26 -49l-351 -133q-16 -5 -24.5 -6.5t-15 3t-11.5 15.5z" />
<glyph unicode="&#xc2;" horiz-adv-x="1081" d="M45 35q108 433 266 919q66 199 111 314q15 38 29 47.5t53 9.5h74q39 0 54 -10t30 -47q27 -68 108 -314q166 -520 264 -915q9 -39 -26 -39h-80q-19 0 -28 7t-13 26q-51 202 -101 381h-493l-98 -381q-8 -33 -41 -33h-82q-18 0 -24.5 7.5t-2.5 27.5zM254 1534l215 244 q14 16 37 16h72q22 0 36 -16l215 -244q22 -25 -2 -41l-47 -33q-23 -18 -45 4l-188 197h-10l-189 -197q-22 -22 -45 -4l-47 33q-26 17 -2 41zM328 537h426q-32 110 -109 368q-40 136 -92 287h-25q-52 -151 -92 -287q-67 -225 -108 -368z" />
<glyph unicode="&#xc3;" horiz-adv-x="1081" d="M45 35q108 433 266 919q66 199 111 314q15 38 29 47.5t53 9.5h74q39 0 54 -10t30 -47q27 -68 108 -314q166 -520 264 -915q9 -39 -26 -39h-80q-19 0 -28 7t-13 26q-51 202 -101 381h-493l-98 -381q-8 -33 -41 -33h-82q-18 0 -24.5 7.5t-2.5 27.5zM217 1548 q41 81 95.5 123.5t113.5 42.5q65 0 121 -41l57 -41q44 -33 74 -33q45 0 108 93q13 20 31 8l53 -33q22 -12 11 -31q-40 -74 -96.5 -117.5t-114.5 -43.5q-67 0 -119 38l-57 41q-19 13 -27 18t-21.5 10t-27.5 5q-57 0 -109 -92q-11 -21 -35 -6l-51 33q-15 9 -6 26zM328 537h426 q-32 110 -109 368q-40 136 -92 287h-25q-52 -151 -92 -287q-67 -225 -108 -368z" />
<glyph unicode="&#xc4;" horiz-adv-x="1081" d="M45 35q108 433 266 919q66 199 111 314q15 38 29 47.5t53 9.5h74q39 0 54 -10t30 -47q27 -68 108 -314q166 -520 264 -915q9 -39 -26 -39h-80q-19 0 -28 7t-13 26q-51 202 -101 381h-493l-98 -381q-8 -33 -41 -33h-82q-18 0 -24.5 7.5t-2.5 27.5zM279 1579v47 q0 38 23.5 59t62.5 21h20q42 0 66 -21t24 -59v-47q0 -39 -24 -59.5t-66 -20.5h-20q-39 0 -62.5 20.5t-23.5 59.5zM328 537h426q-32 110 -109 368q-40 136 -92 287h-25q-52 -151 -92 -287q-67 -225 -108 -368zM610 1579v47q0 38 23.5 59t62.5 21h21q41 0 64.5 -21t23.5 -59 v-47q0 -39 -23 -59.5t-65 -20.5h-21q-39 0 -62.5 20.5t-23.5 59.5z" />
<glyph unicode="&#xc5;" horiz-adv-x="1081" d="M45 35q108 433 266 919q66 199 111 314q15 38 29 47.5t53 9.5h74q39 0 54 -10t30 -47q27 -68 108 -314q166 -520 264 -915q9 -39 -26 -39h-80q-19 0 -28 7t-13 26q-51 202 -101 381h-493l-98 -381q-8 -33 -41 -33h-82q-18 0 -24.5 7.5t-2.5 27.5zM328 537h426 q-32 110 -109 368q-40 136 -92 287h-25q-52 -151 -92 -287q-67 -225 -108 -368zM350 1618q0 85 53.5 135.5t133.5 50.5t133 -50.5t53 -135.5t-53 -135.5t-133 -50.5t-133.5 50.5t-53.5 135.5zM446 1618q0 -42 26 -66t65 -24t64.5 24t25.5 66t-25.5 66t-64.5 24t-65 -24 t-26 -66z" />
<glyph unicode="&#xc6;" horiz-adv-x="1642" d="M76 39q212 440 341 696.5t265 501.5q26 46 61 67t97 21h688q18 0 24.5 -7.5t6.5 -23.5v-53q0 -31 -31 -31h-570v-469h500q18 0 24.5 -7t6.5 -23v-54q0 -30 -31 -30h-500v-408q0 -59 25 -84q23 -20 84 -20h461q31 0 31 -31v-53q0 -16 -6.5 -23.5t-24.5 -7.5h-471 q-123 0 -176 45q-64 54 -64 164v205h-414l-178 -381q-13 -33 -45 -33h-78q-43 0 -26 39zM465 537h352v673h-10q-207 -393 -342 -673z" />
<glyph unicode="&#xc7;" horiz-adv-x="1032" d="M111 608v109q0 201 36.5 329t126.5 201q119 96 312 96q195 0 352 -96q25 -14 10 -39l-35 -53q-13 -21 -41 -6q-135 80 -280 80q-149 0 -234 -88q-59 -60 -78.5 -160t-19.5 -289v-57q0 -191 18 -288t72 -159q83 -92 262 -92q133 0 277 54q39 13 47 -19l14 -45 q5 -18 -0.5 -28t-25.5 -17q-148 -59 -312 -59l-12 -99q23 4 68 4q64 0 103.5 -38.5t39.5 -116.5q0 -97 -58.5 -144t-181.5 -47q-71 0 -135 21q-16 6 -14 22l8 62q5 22 25 16q63 -18 112 -18q66 0 93.5 17t27.5 67q0 33 -15.5 48t-54.5 15q-44 0 -77 -8q-22 -6 -31 8l-16 27 q-7 14 -5 30l21 138q-195 20 -287 129q-63 74 -87.5 191.5t-24.5 301.5z" />
<glyph unicode="&#xc8;" horiz-adv-x="964" d="M123 608v109q0 235 14 399q9 116 66 164q53 45 176 45h471q18 0 24.5 -7.5t6.5 -23.5v-53q0 -31 -31 -31h-461q-58 0 -84 -26q-21 -21 -24 -84q-13 -212 -13 -359h486q18 0 24 -7t6 -23v-54q0 -30 -30 -30h-486q0 -299 8 -408q3 -62 25 -84q23 -20 84 -20h465 q31 0 31 -31v-53q0 -16 -6.5 -23.5t-24.5 -7.5h-475q-123 0 -176 45q-55 47 -64 164q-12 157 -12 399zM301 1614l35 72q14 32 55 14l348 -170q22 -13 11 -41l-21 -45q-9 -15 -19 -17.5t-32 5.5l-350 133q-41 15 -27 49z" />
<glyph unicode="&#xc9;" horiz-adv-x="964" d="M123 608v109q0 235 14 399q9 116 66 164q53 45 176 45h471q18 0 24.5 -7.5t6.5 -23.5v-53q0 -31 -31 -31h-461q-58 0 -84 -26q-21 -21 -24 -84q-13 -212 -13 -359h486q18 0 24 -7t6 -23v-54q0 -30 -30 -30h-486q0 -299 8 -408q3 -62 25 -84q23 -20 84 -20h465 q31 0 31 -31v-53q0 -16 -6.5 -23.5t-24.5 -7.5h-475q-123 0 -176 45q-55 47 -64 164q-12 157 -12 399zM367 1489q-11 29 10 41l348 170q41 18 55 -14l35 -72q14 -34 -27 -49l-350 -133q-16 -5 -24.5 -6.5t-15 3t-11.5 15.5z" />
<glyph unicode="&#xca;" horiz-adv-x="964" d="M123 608v109q0 235 14 399q9 116 66 164q53 45 176 45h471q18 0 24.5 -7.5t6.5 -23.5v-53q0 -31 -31 -31h-461q-58 0 -84 -26q-21 -21 -24 -84q-13 -212 -13 -359h486q18 0 24 -7t6 -23v-54q0 -30 -30 -30h-486q0 -299 8 -408q3 -62 25 -84q23 -20 84 -20h465 q31 0 31 -31v-53q0 -16 -6.5 -23.5t-24.5 -7.5h-475q-123 0 -176 45q-55 47 -64 164q-12 157 -12 399zM262 1513l215 244q15 17 37 17h72q22 0 37 -17l215 -244q21 -25 -2 -40l-48 -33q-23 -18 -45 4l-188 196h-10l-189 -196q-22 -22 -45 -4l-47 33q-25 17 -2 40z" />
<glyph unicode="&#xcb;" horiz-adv-x="964" d="M123 608v109q0 235 14 399q9 116 66 164q53 45 176 45h471q18 0 24.5 -7.5t6.5 -23.5v-53q0 -31 -31 -31h-461q-58 0 -84 -26q-21 -21 -24 -84q-13 -212 -13 -359h486q18 0 24 -7t6 -23v-54q0 -30 -30 -30h-486q0 -299 8 -408q3 -62 25 -84q23 -20 84 -20h465 q31 0 31 -31v-53q0 -16 -6.5 -23.5t-24.5 -7.5h-475q-123 0 -176 45q-55 47 -64 164q-12 157 -12 399zM276 1559v47q0 38 23.5 59t62.5 21h21q42 0 66 -21t24 -59v-47q0 -39 -24 -59.5t-66 -20.5h-21q-39 0 -62.5 20.5t-23.5 59.5zM608 1559v47q0 38 23.5 59t62.5 21h21 q41 0 64.5 -21t23.5 -59v-47q0 -39 -23 -59.5t-65 -20.5h-21q-39 0 -62.5 20.5t-23.5 59.5z" />
<glyph unicode="&#xcc;" horiz-adv-x="452" d="M-96 1614l35 72q14 32 55 14l348 -170q21 -12 10 -41l-20 -45q-9 -15 -19 -17.5t-32 5.5l-351 133q-40 15 -26 49zM156 35v1255q0 35 32 35h74q35 0 35 -35v-1255q0 -35 -35 -35h-72q-34 0 -34 35z" />
<glyph unicode="&#xcd;" horiz-adv-x="452" d="M88 1489q-11 29 10 41l348 170q42 19 56 -14l35 -72q14 -34 -27 -49l-350 -133q-16 -5 -24.5 -6.5t-15 3t-11.5 15.5zM156 35v1255q0 35 32 35h74q35 0 35 -35v-1255q0 -35 -35 -35h-72q-34 0 -34 35z" />
<glyph unicode="&#xce;" horiz-adv-x="452" d="M-61 1513l215 244q15 17 36 17h72q22 0 37 -17l215 -244q21 -25 -2 -40l-47 -33q-23 -18 -45 4l-189 196h-10l-188 -196q-22 -22 -45 -4l-47 33q-25 17 -2 40zM156 35v1255q0 35 32 35h74q35 0 35 -35v-1255q0 -35 -35 -35h-72q-34 0 -34 35z" />
<glyph unicode="&#xcf;" horiz-adv-x="452" d="M-35 1559v47q0 38 23.5 59t62.5 21h21q42 0 66 -21t24 -59v-47q0 -39 -24 -59.5t-66 -20.5h-21q-39 0 -62.5 20.5t-23.5 59.5zM156 35v1255q0 35 32 35h74q35 0 35 -35v-1255q0 -35 -35 -35h-72q-34 0 -34 35zM297 1559v47q0 38 23.5 59t62.5 21h20q42 0 65.5 -21 t23.5 -59v-47q0 -39 -23.5 -59.5t-65.5 -20.5h-20q-39 0 -62.5 20.5t-23.5 59.5z" />
<glyph unicode="&#xd0;" horiz-adv-x="1191" d="M-14 653v58q0 30 30 30h129v539q0 26 10.5 38t37.5 15q100 10 239 10q174 0 295.5 -30t200.5 -101q79 -72 116 -187.5t37 -301.5v-102q0 -327 -137 -474t-455 -147h-294q-50 0 -50 51v572h-129q-18 0 -24 7t-6 23zM287 141q0 -26 24 -26h156q132 0 204.5 18.5t131.5 69.5 q68 57 98.5 156t30.5 278v65q0 159 -25.5 254.5t-81.5 157.5q-104 115 -358 115q-117 0 -156 -4q-24 -3 -24 -31v-453h266q31 0 31 -30v-62q0 -12 -6 -18.5t-11 -7t-14 -0.5h-266v-482z" />
<glyph unicode="&#xd1;" horiz-adv-x="1234" d="M145 35v1229q0 36 14.5 48.5t53.5 12.5h100q40 0 59 -14.5t36 -48.5l536 -1129h14v1157q0 35 29 35h74q29 0 29 -35v-1229q0 -36 -14.5 -48.5t-53.5 -12.5h-100q-40 0 -59 14.5t-36 48.5l-536 1125h-15v-1153q0 -35 -28 -35h-74q-29 0 -29 35zM291 1528q41 81 95.5 123.5 t113.5 42.5q65 0 121 -41l57 -41q44 -33 74 -33q45 0 108 92q13 20 31 8l53 -32q21 -12 10 -31q-40 -74 -96.5 -118t-114.5 -44q-65 0 -118 39l-58 41q-20 14 -27 18.5t-20.5 9.5t-27.5 5q-57 0 -109 -92q-7 -13 -15 -14t-20 7l-51 33q-15 9 -6 27z" />
<glyph unicode="&#xd2;" horiz-adv-x="1191" d="M111 608v107q0 359 129 502q114 126 356 126t356 -126q129 -143 129 -502v-107q0 -354 -125 -495q-116 -131 -360 -131q-230 0 -346 116q-74 76 -106.5 201t-32.5 309zM260 635q0 -163 19 -272t73 -173q81 -94 244 -94q179 0 256 107q47 65 63.5 171t16.5 261v55 q0 160 -15 264t-65 170q-78 105 -256 105q-174 0 -252 -105q-50 -65 -67 -170t-17 -264v-55zM362 1614l35 72q14 33 56 14l348 -170q21 -12 10 -41l-20 -45q-9 -15 -19.5 -17.5t-32.5 5.5l-350 133q-41 15 -27 49z" />
<glyph unicode="&#xd3;" horiz-adv-x="1191" d="M111 608v107q0 359 129 502q114 126 356 126t356 -126q129 -143 129 -502v-107q0 -354 -125 -495q-116 -131 -360 -131q-230 0 -346 116q-74 76 -106.5 201t-32.5 309zM260 635q0 -163 19 -272t73 -173q81 -94 244 -94q179 0 256 107q47 65 63.5 171t16.5 261v55 q0 160 -15 264t-65 170q-78 105 -256 105q-174 0 -252 -105q-50 -65 -67 -170t-17 -264v-55zM416 1489q-11 29 10 41l348 170q41 18 55 -14l35 -72q14 -34 -26 -49l-351 -133q-16 -5 -24.5 -6.5t-15 3t-11.5 15.5z" />
<glyph unicode="&#xd4;" horiz-adv-x="1191" d="M111 608v107q0 359 129 502q114 126 356 126t356 -126q129 -143 129 -502v-107q0 -354 -125 -495q-116 -131 -360 -131q-230 0 -346 116q-74 76 -106.5 201t-32.5 309zM260 635q0 -163 19 -272t73 -173q81 -94 244 -94q179 0 256 107q47 65 63.5 171t16.5 261v55 q0 160 -15 264t-65 170q-78 105 -256 105q-174 0 -252 -105q-50 -65 -67 -170t-17 -264v-55zM313 1513l215 244q15 17 37 17h72q22 0 37 -17l215 -244q21 -25 -2 -40l-47 -33q-23 -18 -45 4l-189 196h-10l-188 -196q-22 -22 -46 -4l-47 33q-25 17 -2 40z" />
<glyph unicode="&#xd5;" horiz-adv-x="1191" d="M111 608v107q0 359 129 502q114 126 356 126t356 -126q129 -143 129 -502v-107q0 -354 -125 -495q-116 -131 -360 -131q-230 0 -346 116q-74 76 -106.5 201t-32.5 309zM260 635q0 -163 19 -272t73 -173q81 -94 244 -94q179 0 256 107q47 65 63.5 171t16.5 261v55 q0 160 -15 264t-65 170q-78 105 -256 105q-174 0 -252 -105q-50 -65 -67 -170t-17 -264v-55zM270 1528q41 81 95.5 123.5t113.5 42.5q65 0 121 -41l57 -41q44 -33 74 -33q46 0 109 92q13 19 30 8l54 -32q21 -12 10 -31q-40 -74 -96.5 -118t-114.5 -44q-66 0 -119 39l-57 41 q-19 13 -27 18t-21.5 10t-27.5 5q-57 0 -109 -92q-7 -13 -14.5 -14t-19.5 7l-52 33q-15 9 -6 27z" />
<glyph unicode="&#xd6;" horiz-adv-x="1191" d="M111 608v107q0 359 129 502q114 126 356 126t356 -126q129 -143 129 -502v-107q0 -354 -125 -495q-116 -131 -360 -131q-230 0 -346 116q-74 76 -106.5 201t-32.5 309zM260 635q0 -163 19 -272t73 -173q81 -94 244 -94q179 0 256 107q47 65 63.5 171t16.5 261v55 q0 160 -15 264t-65 170q-78 105 -256 105q-174 0 -252 -105q-50 -65 -67 -170t-17 -264v-55zM336 1559v47q0 38 23.5 59t62.5 21h20q42 0 66 -21t24 -59v-47q0 -39 -24 -59.5t-66 -20.5h-20q-39 0 -62.5 20.5t-23.5 59.5zM668 1559v47q0 38 23.5 59t62.5 21h20 q41 0 64.5 -21t23.5 -59v-47q0 -39 -23 -59.5t-65 -20.5h-20q-39 0 -62.5 20.5t-23.5 59.5z" />
<glyph unicode="&#xd7;" d="M164 221q-17 17 2 41l270 270l-264 261q-26 23 0 45l51 49q23 23 43 0l262 -262l263 262q21 21 45 -2l49 -47q21 -21 0 -45l-260 -261l272 -268q21 -21 0 -45l-53 -53q-8 -8 -16 -9t-12.5 2t-12.5 11l-273 268l-270 -270q-20 -23 -43 0z" />
<glyph unicode="&#xd8;" horiz-adv-x="1191" d="M111 608v107q0 359 129 502q114 126 356 126q174 0 283 -65l69 127q15 30 41 14l41 -22q24 -13 10 -41l-82 -148q123 -142 123 -493v-107q0 -354 -125 -495q-116 -131 -360 -131q-171 0 -279 63l-69 -125q-15 -30 -41 -14l-41 22q-24 14 -8 41l78 144q-125 141 -125 495z M260 635q0 -133 11 -224.5t42 -156.5l500 905q-76 64 -217 64q-174 0 -252 -105q-50 -65 -67 -168t-17 -260v-55zM383 166q76 -64 213 -64q179 0 256 107q47 65 63.5 168.5t16.5 257.5v55q0 129 -10 220t-41 157z" />
<glyph unicode="&#xd9;" horiz-adv-x="1196" d="M139 430v860q0 17 9.5 26t23.5 9h76q14 0 23.5 -9t9.5 -26v-852q0 -175 71 -254q79 -88 246 -88t246 88q71 79 71 254v852q0 17 9.5 26t23.5 9h76q14 0 23.5 -9t9.5 -26v-860q0 -229 -111 -340q-111 -108 -348 -108t-348 108q-111 111 -111 340zM354 1614l35 72 q14 32 55 14l349 -170q21 -12 10 -41l-21 -45q-9 -15 -19 -17.5t-32 5.5l-350 133q-41 15 -27 49z" />
<glyph unicode="&#xda;" horiz-adv-x="1196" d="M139 430v860q0 17 9.5 26t23.5 9h76q14 0 23.5 -9t9.5 -26v-852q0 -175 71 -254q79 -88 246 -88t246 88q71 79 71 254v852q0 17 9.5 26t23.5 9h76q14 0 23.5 -9t9.5 -26v-860q0 -229 -111 -340q-111 -108 -348 -108t-348 108q-111 111 -111 340zM393 1489q-11 29 10 41 l349 170q41 18 55 -14l35 -72q14 -34 -27 -49l-350 -133q-16 -5 -24.5 -6.5t-15 3t-11.5 15.5z" />
<glyph unicode="&#xdb;" horiz-adv-x="1196" d="M139 430v860q0 17 9.5 26t23.5 9h76q14 0 23.5 -9t9.5 -26v-852q0 -175 71 -254q79 -88 246 -88t246 88q71 79 71 254v852q0 17 9.5 26t23.5 9h76q14 0 23.5 -9t9.5 -26v-860q0 -229 -111 -340q-111 -108 -348 -108t-348 108q-111 111 -111 340zM311 1513l215 244 q15 17 37 17h72q22 0 37 -17l215 -244q21 -25 -2 -40l-47 -33q-23 -18 -45 4l-189 196h-10l-188 -196q-22 -22 -46 -4l-47 33q-25 17 -2 40z" />
<glyph unicode="&#xdc;" horiz-adv-x="1196" d="M139 430v860q0 17 9.5 26t23.5 9h76q14 0 23.5 -9t9.5 -26v-852q0 -175 71 -254q79 -88 246 -88t246 88q71 79 71 254v852q0 17 9.5 26t23.5 9h76q14 0 23.5 -9t9.5 -26v-860q0 -229 -111 -340q-111 -108 -348 -108t-348 108q-111 111 -111 340zM338 1559v47 q0 38 23.5 59t62.5 21h20q42 0 66.5 -21t24.5 -59v-47q0 -39 -24.5 -59.5t-66.5 -20.5h-20q-39 0 -62.5 20.5t-23.5 59.5zM670 1559v47q0 38 23.5 59t62.5 21h20q41 0 64.5 -21t23.5 -59v-47q0 -39 -23 -59.5t-65 -20.5h-20q-39 0 -62.5 20.5t-23.5 59.5z" />
<glyph unicode="&#xdd;" horiz-adv-x="972" d="M47 1300q-8 25 21 25h90q32 0 37 -20q81 -278 198 -533q48 -109 86 -176h15q38 72 84 176q128 287 200 533q8 20 37 20h90q29 0 21 -25q-78 -282 -226 -579q-12 -25 -143 -270v-420q0 -31 -33 -31h-75q-33 0 -33 31v420q-92 166 -144 270q-146 292 -225 579zM295 1489 q-11 29 10 41l348 170q42 19 56 -14l34 -72q14 -34 -26 -49l-350 -133q-21 -8 -33 -6t-19 18z" />
<glyph unicode="&#xde;" horiz-adv-x="1030" d="M145 35v1274q0 34 33 34h80q29 0 29 -34v-183q93 7 153 7q514 0 514 -398v-39q0 -195 -118 -297t-342 -102q-125 0 -207 6v-268q0 -35 -33 -35h-80q-29 0 -29 35zM287 424q95 -6 188 -6q171 0 250.5 65t79.5 224v26q0 81 -25.5 136.5t-75 86t-111 43.5t-144.5 13 q-89 0 -162 -8v-580z" />
<glyph unicode="&#xdf;" horiz-adv-x="1030" d="M135 -96v1143q0 102 22.5 167.5t71.5 108.5q94 82 289 82q157 0 250 -78q104 -87 104 -246v-26q0 -108 -51 -192.5t-135 -112.5v-7q136 -26 199 -110q59 -76 59 -225v-29q0 -211 -96 -307q-90 -90 -281 -90q-101 0 -190 18q-37 8 -31 33l12 63q6 26 33 19q89 -19 162 -19 q134 0 192 58q64 64 64 231v16q0 140 -66 203q-71 68 -231 68h-68q-26 0 -26 24v64q0 28 26 28h25q131 0 197 58q36 32 53.5 87t17.5 114v18q0 111 -57 168q-60 57 -168 57q-131 0 -186 -55q-33 -33 -46.5 -83.5t-13.5 -147.5l2 -1100q0 -35 -28 -35h-72q-33 0 -33 35z" />
<glyph unicode="&#xe0;" horiz-adv-x="950" d="M82 248v61q0 94 41 160.5t119 97.5q72 29 245 29h62q75 0 137 -6v117q0 113 -59.5 156.5t-188.5 43.5q-106 0 -211 -30q-23 -7 -36 -4.5t-17 20.5l-10 43q-6 18 -1.5 29.5t23.5 17.5q133 39 263 39q196 0 283 -70.5t87 -230.5v-701q0 -11 -4.5 -15.5t-17.5 -4.5h-68 q-27 0 -27 20l-4 70h-4q-68 -108 -217 -108h-102q-67 0 -125.5 19t-93.5 54q-74 74 -74 193zM217 264q0 -93 43 -133q40 -37 125 -37h84q103 0 160 54.5t57 158.5v170q-50 6 -123 6h-114q-129 0 -181 -41q-51 -39 -51 -135v-43zM249 1332.5q-6 10.5 1 29.5l35 72 q14 32 55 14l348 -170q21 -12 10 -41l-20 -45q-5 -11 -11.5 -15.5t-15 -3t-24.5 6.5l-351 133q-21 9 -27 19.5z" />
<glyph unicode="&#xe1;" horiz-adv-x="950" d="M82 248v61q0 94 41 160.5t119 97.5q72 29 245 29h62q75 0 137 -6v117q0 113 -59.5 156.5t-188.5 43.5q-106 0 -211 -30q-23 -7 -36 -4.5t-17 20.5l-10 43q-6 18 -1.5 29.5t23.5 17.5q133 39 263 39q196 0 283 -70.5t87 -230.5v-701q0 -11 -4.5 -15.5t-17.5 -4.5h-68 q-27 0 -27 20l-4 70h-4q-68 -108 -217 -108h-102q-67 0 -125.5 19t-93.5 54q-74 74 -74 193zM217 264q0 -93 43 -133q40 -37 125 -37h84q103 0 160 54.5t57 158.5v170q-50 6 -123 6h-114q-129 0 -181 -41q-51 -39 -51 -135v-43zM285 1237q-11 29 10 41l348 170q41 18 55 -14 l35 -72q7 -19 1 -29.5t-27 -19.5l-351 -133q-16 -5 -24.5 -6.5t-15 3t-11.5 15.5z" />
<glyph unicode="&#xe2;" horiz-adv-x="950" d="M82 248v61q0 94 41 160.5t119 97.5q72 29 245 29h62q75 0 137 -6v117q0 113 -59.5 156.5t-188.5 43.5q-106 0 -211 -30q-23 -7 -36 -4.5t-17 20.5l-10 43q-6 18 -1.5 29.5t23.5 17.5q133 39 263 39q196 0 283 -70.5t87 -230.5v-701q0 -11 -4.5 -15.5t-17.5 -4.5h-68 q-27 0 -27 20l-4 70h-4q-68 -108 -217 -108h-102q-67 0 -125.5 19t-93.5 54q-74 74 -74 193zM190 1231l216 244q14 16 36 16h72q23 0 37 -16l215 -244q22 -25 -2 -41l-47 -33q-23 -18 -45 4l-189 197h-10l-188 -197q-22 -22 -45 -4l-47 33q-26 18 -3 41zM217 264 q0 -93 43 -133q40 -37 125 -37h84q103 0 160 54.5t57 158.5v170q-50 6 -123 6h-114q-129 0 -181 -41q-51 -39 -51 -135v-43z" />
<glyph unicode="&#xe3;" horiz-adv-x="950" d="M82 248v61q0 94 41 160.5t119 97.5q72 29 245 29h62q75 0 137 -6v117q0 113 -59.5 156.5t-188.5 43.5q-106 0 -211 -30q-23 -7 -36 -4.5t-17 20.5l-10 43q-6 18 -1.5 29.5t23.5 17.5q133 39 263 39q196 0 283 -70.5t87 -230.5v-701q0 -11 -4.5 -15.5t-17.5 -4.5h-68 q-27 0 -27 20l-4 70h-4q-68 -108 -217 -108h-102q-67 0 -125.5 19t-93.5 54q-74 74 -74 193zM156 1260q41 81 95.5 123t113.5 42q64 0 120 -41l58 -41q42 -32 73 -32q46 0 109 92q13 20 31 8l53 -33q20 -12 10 -30q-40 -74 -96.5 -118t-114.5 -44q-66 0 -119 39l-57 41 q-46 32 -76 32q-56 0 -108 -92q-11 -21 -35 -6l-51 33q-15 9 -6 27zM217 264q0 -93 43 -133q40 -37 125 -37h84q103 0 160 54.5t57 158.5v170q-50 6 -123 6h-114q-129 0 -181 -41q-51 -39 -51 -135v-43z" />
<glyph unicode="&#xe4;" horiz-adv-x="950" d="M82 248v61q0 94 41 160.5t119 97.5q72 29 245 29h62q75 0 137 -6v117q0 113 -59.5 156.5t-188.5 43.5q-106 0 -211 -30q-23 -7 -36 -4.5t-17 20.5l-10 43q-6 18 -1.5 29.5t23.5 17.5q133 39 263 39q196 0 283 -70.5t87 -230.5v-701q0 -11 -4.5 -15.5t-17.5 -4.5h-68 q-27 0 -27 20l-4 70h-4q-68 -108 -217 -108h-102q-67 0 -125.5 19t-93.5 54q-74 74 -74 193zM217 264q0 -93 43 -133q40 -37 125 -37h84q103 0 160 54.5t57 158.5v170q-50 6 -123 6h-114q-129 0 -181 -41q-51 -39 -51 -135v-43zM221 1288v47q0 38 23.5 59t62.5 21h21 q42 0 66 -21t24 -59v-47q0 -39 -24 -59.5t-66 -20.5h-21q-39 0 -62.5 20.5t-23.5 59.5zM553 1288v47q0 38 23.5 59t62.5 21h20q42 0 65.5 -21t23.5 -59v-47q0 -39 -23.5 -59.5t-65.5 -20.5h-20q-39 0 -62.5 20.5t-23.5 59.5z" />
<glyph unicode="&#xe5;" horiz-adv-x="950" d="M82 248v61q0 94 41 160.5t119 97.5q72 29 245 29h62q75 0 137 -6v117q0 113 -59.5 156.5t-188.5 43.5q-106 0 -211 -30q-23 -7 -36 -4.5t-17 20.5l-10 43q-6 18 -1.5 29.5t23.5 17.5q133 39 263 39q196 0 283 -70.5t87 -230.5v-701q0 -11 -4.5 -15.5t-17.5 -4.5h-68 q-27 0 -27 20l-4 70h-4q-68 -108 -217 -108h-102q-67 0 -125.5 19t-93.5 54q-74 74 -74 193zM217 264q0 -93 43 -133q40 -37 125 -37h84q103 0 160 54.5t57 158.5v170q-50 6 -123 6h-114q-129 0 -181 -41q-51 -39 -51 -135v-43zM309 1305q0 85 53.5 135.5t133.5 50.5 t133 -50.5t53 -135.5q0 -86 -53 -136.5t-133 -50.5t-133.5 51t-53.5 136zM406 1305q0 -42 25.5 -66.5t64.5 -24.5t64.5 24.5t25.5 66.5t-25.5 66t-64.5 24t-64.5 -24t-25.5 -66z" />
<glyph unicode="&#xe6;" horiz-adv-x="1523" d="M82 248v61q0 94 41 160.5t119 97.5q72 29 245 29h62q75 0 137 -6v117q0 113 -59.5 156.5t-188.5 43.5q-106 0 -211 -30q-23 -7 -36 -4.5t-17 20.5l-10 43q-6 18 -1.5 29.5t23.5 17.5q133 39 263 39q155 0 225 -37q61 -33 92 -88q91 125 305 125q177 0 264 -84 q47 -45 68.5 -108t21.5 -158v-148q0 -45 -18.5 -64.5t-60.5 -19.5h-525v-14q6 -185 65.5 -258.5t203.5 -73.5q122 0 225 41q40 15 49 -14l14 -45q3 -10 3 -19t-11.5 -18.5t-36.5 -18.5q-101 -38 -243 -38q-133 0 -211.5 34t-124.5 111q-76 -145 -265 -145h-114 q-67 0 -125.5 19t-93.5 54q-74 74 -74 193zM217 266q0 -95 43 -135q40 -37 125 -37h84q217 0 217 211v172q-50 6 -123 6h-114q-129 0 -181 -41q-51 -39 -51 -135v-41zM821 557h441q16 0 22 5.5t6 25.5v63q0 74 -10.5 117.5t-36.5 75.5q-53 65 -170 65q-89 0 -141.5 -30.5 t-80.5 -108t-30 -213.5z" />
<glyph unicode="&#xe7;" horiz-adv-x="843" d="M92 475v68q0 271 125 387q99 92 277 92q81 0 162.5 -26.5t129.5 -63.5q6 -5 7 -14.5t-5 -18.5l-34 -57q-11 -19 -35 -4q-113 69 -225 69q-119 0 -185 -63q-36 -36 -55.5 -95.5t-23 -106t-3.5 -118.5v-35q0 -121 15 -195.5t51 -119.5q61 -78 207 -78q100 0 198 39 q41 15 50 -14l14 -47q7 -20 1 -29.5t-36 -21.5q-87 -38 -219 -41l-14 -113q23 4 67 4q64 0 104 -39t40 -117q0 -97 -58.5 -143.5t-181.5 -46.5q-74 0 -135 20q-17 7 -15 23l9 61q6 22 24 17q66 -19 113 -19q66 0 93.5 17t27.5 67q0 33 -15.5 48.5t-54.5 15.5q-45 0 -78 -8 q-22 -6 -31 8l-16 26q-7 13 -4 31l25 154q-130 18 -197 82q-66 60 -92.5 159.5t-26.5 245.5z" />
<glyph unicode="&#xe8;" horiz-adv-x="929" d="M92 461v82q0 248 87.5 363.5t297.5 115.5q177 0 264 -84q47 -45 68.5 -108t21.5 -158v-168q0 -43 -16.5 -60.5t-58.5 -17.5h-529q6 -185 65 -257.5t204 -72.5q122 0 225 41q40 15 49 -14l14 -47q3 -10 3 -19t-11.5 -18.5t-36.5 -18.5q-101 -38 -243 -38 q-223 0 -313.5 113t-90.5 366zM227 543h441q12 0 17 1.5t8 8t3 20.5v78q0 74 -10.5 116.5t-36.5 74.5q-53 65 -170 65q-91 0 -143.5 -31t-80 -111t-28.5 -222zM249 1332.5q-6 10.5 1 29.5l35 72q14 32 55 14l348 -170q21 -12 10 -41l-20 -45q-5 -11 -11.5 -15.5t-15 -3 t-24.5 6.5l-351 133q-21 9 -27 19.5z" />
<glyph unicode="&#xe9;" horiz-adv-x="929" d="M92 461v82q0 248 87.5 363.5t297.5 115.5q177 0 264 -84q47 -45 68.5 -108t21.5 -158v-168q0 -43 -16.5 -60.5t-58.5 -17.5h-529q6 -185 65 -257.5t204 -72.5q122 0 225 41q40 15 49 -14l14 -47q3 -10 3 -19t-11.5 -18.5t-36.5 -18.5q-101 -38 -243 -38 q-223 0 -313.5 113t-90.5 366zM227 543h441q12 0 17 1.5t8 8t3 20.5v78q0 74 -10.5 116.5t-36.5 74.5q-53 65 -170 65q-91 0 -143.5 -31t-80 -111t-28.5 -222zM268 1237q-11 28 11 41l348 170q41 18 55 -14l35 -72q7 -19 0.5 -29.5t-27.5 -19.5l-350 -133q-16 -5 -24.5 -6.5 t-15 3t-11.5 15.5z" />
<glyph unicode="&#xea;" horiz-adv-x="929" d="M92 461v82q0 248 87.5 363.5t297.5 115.5q177 0 264 -84q47 -45 68.5 -108t21.5 -158v-168q0 -43 -16.5 -60.5t-58.5 -17.5h-529q6 -185 65 -257.5t204 -72.5q122 0 225 41q40 15 49 -14l14 -47q3 -10 3 -19t-11.5 -18.5t-36.5 -18.5q-101 -38 -243 -38 q-223 0 -313.5 113t-90.5 366zM193 1231l215 244q14 16 36 16h72q23 0 37 -16l215 -244q22 -25 -2 -41l-47 -33q-23 -18 -45 4l-189 197h-10l-188 -197q-22 -22 -45 -4l-47 33q-26 17 -2 41zM227 543h441q12 0 17 1.5t8 8t3 20.5v78q0 74 -10.5 116.5t-36.5 74.5 q-53 65 -170 65q-91 0 -143.5 -31t-80 -111t-28.5 -222z" />
<glyph unicode="&#xeb;" horiz-adv-x="929" d="M92 461v82q0 248 87.5 363.5t297.5 115.5q177 0 264 -84q47 -45 68.5 -108t21.5 -158v-168q0 -43 -16.5 -60.5t-58.5 -17.5h-529q6 -185 65 -257.5t204 -72.5q122 0 225 41q40 15 49 -14l14 -47q3 -10 3 -19t-11.5 -18.5t-36.5 -18.5q-101 -38 -243 -38 q-223 0 -313.5 113t-90.5 366zM223 1288v47q0 38 23.5 59t62.5 21h21q42 0 66 -21t24 -59v-47q0 -39 -24 -59.5t-66 -20.5h-21q-39 0 -62.5 20.5t-23.5 59.5zM227 543h441q12 0 17 1.5t8 8t3 20.5v78q0 74 -10.5 116.5t-36.5 74.5q-53 65 -170 65q-91 0 -143.5 -31t-80 -111 t-28.5 -222zM555 1288v47q0 38 23.5 59t62.5 21h21q41 0 64.5 -21t23.5 -59v-47q0 -39 -23 -59.5t-65 -20.5h-21q-39 0 -62.5 20.5t-23.5 59.5z" />
<glyph unicode="&#xec;" horiz-adv-x="468" d="M-45.5 1332.5q-6.5 10.5 0.5 29.5l35 72q14 32 55 14l348 -170q21 -12 10 -41l-20 -45q-5 -11 -11.5 -15.5t-15 -3t-24.5 6.5l-350 133q-21 9 -27.5 19.5zM168 16v965q0 23 25 23h83q25 0 25 -23v-965q0 -16 -18 -16h-99q-16 0 -16 16z" />
<glyph unicode="&#xed;" horiz-adv-x="468" d="M66 1237q-11 29 10 41l348 170q41 18 55 -14l35 -72q7 -19 0.5 -29.5t-27.5 -19.5l-350 -133q-16 -5 -24.5 -6.5t-15 3t-11.5 15.5zM168 16v965q0 23 25 23h83q25 0 25 -23v-965q0 -16 -18 -16h-99q-16 0 -16 16z" />
<glyph unicode="&#xee;" horiz-adv-x="468" d="M-53 1231l215 244q14 16 37 16h71q23 0 37 -16l215 -244q22 -25 -2 -41l-47 -33q-23 -18 -45 4l-188 197h-11l-188 -197q-22 -22 -45 -4l-47 33q-26 17 -2 41zM168 16v965q0 23 25 23h83q25 0 25 -23v-965q0 -16 -18 -16h-99q-16 0 -16 16z" />
<glyph unicode="&#xef;" horiz-adv-x="468" d="M-29 1288v47q0 38 23.5 59t62.5 21h21q42 0 66 -21t24 -59v-47q0 -39 -24 -59.5t-66 -20.5h-21q-39 0 -62.5 20.5t-23.5 59.5zM168 16v965q0 23 25 23h83q25 0 25 -23v-965q0 -16 -18 -16h-99q-16 0 -16 16zM303 1288v47q0 38 23.5 59t62.5 21h21q41 0 64.5 -21t23.5 -59 v-47q0 -39 -23 -59.5t-65 -20.5h-21q-39 0 -62.5 20.5t-23.5 59.5z" />
<glyph unicode="&#xf0;" d="M100 430v68q0 212 100 331t296 119q143 0 239 -78l4 4q-72 198 -227 332l-172 -108q-19 -10 -28 -9.5t-17 11.5l-25 35q-18 24 17 45l141 88q-48 32 -139 75q-28 14 -17 37l29 50q12 21 37 12q113 -42 199 -105l139 88q24 15 39 -6l26 -37q14 -21 -10 -36l-113 -72 q152 -135 233 -329.5t81 -420.5v-73q0 -216 -106.5 -342.5t-319.5 -126.5q-214 0 -310 113.5t-96 334.5zM240 453q0 -178 64 -266.5t204 -88.5q285 0 285 361v24q0 171 -70.5 259.5t-206.5 88.5q-147 0 -211.5 -88.5t-64.5 -265.5v-24z" />
<glyph unicode="&#xf1;" horiz-adv-x="1036" d="M141 31v950q0 23 21 23h61q22 0 25 -23l10 -82h4q26 45 84 78q77 45 193 45q238 0 317 -137q49 -83 49 -264v-586q0 -35 -39 -35h-57q-24 0 -30.5 6.5t-6.5 28.5v598q0 96 -21 151.5t-73 87.5q-61 39 -166 39q-142 0 -201 -86q-37 -55 -37 -159v-635q0 -31 -36 -31h-64 q-19 0 -26 7t-7 24zM199 1260q41 81 95.5 123t113.5 42q64 0 120 -41l58 -41q42 -32 73 -32q46 0 109 92q13 20 31 8l53 -33q20 -12 10 -30q-40 -74 -96.5 -118t-114.5 -44q-66 0 -119 39l-57 41q-46 32 -76 32q-56 0 -108 -92q-11 -21 -35 -6l-51 33q-15 9 -6 27z" />
<glyph unicode="&#xf2;" horiz-adv-x="972" d="M92 461v82q0 278 107 385q97 94 286 94q192 0 289 -94q107 -107 107 -385v-82q0 -276 -107 -383q-99 -96 -289 -96q-187 0 -286 96q-107 107 -107 383zM227 483q0 -149 21 -225q25 -87 83.5 -124.5t153.5 -37.5q96 0 155.5 37.5t84.5 124.5q20 73 20 225v39 q0 153 -20 226q-25 87 -84 123t-156 36q-96 0 -154 -36t-83 -123q-21 -76 -21 -226v-39zM255.5 1332.5q-6.5 10.5 0.5 29.5l35 72q14 32 55 14l348 -170q22 -13 11 -41l-21 -45q-5 -11 -11.5 -15.5t-15 -3t-24.5 6.5l-350 133q-21 9 -27.5 19.5z" />
<glyph unicode="&#xf3;" horiz-adv-x="972" d="M92 461v82q0 278 107 385q97 94 286 94q192 0 289 -94q107 -107 107 -385v-82q0 -276 -107 -383q-99 -96 -289 -96q-187 0 -286 96q-107 107 -107 383zM227 483q0 -149 21 -225q25 -87 83.5 -124.5t153.5 -37.5q96 0 155.5 37.5t84.5 124.5q20 73 20 225v39 q0 153 -20 226q-25 87 -84 123t-156 36q-96 0 -154 -36t-83 -123q-21 -76 -21 -226v-39zM279 1237q-11 29 10 41l348 170q41 18 55 -14l35 -72q7 -19 0.5 -29.5t-27.5 -19.5l-350 -133q-16 -5 -24.5 -6.5t-15 3t-11.5 15.5z" />
<glyph unicode="&#xf4;" horiz-adv-x="972" d="M92 461v82q0 278 107 385q97 94 286 94q192 0 289 -94q107 -107 107 -385v-82q0 -276 -107 -383q-99 -96 -289 -96q-187 0 -286 96q-107 107 -107 383zM203 1231l215 244q14 16 37 16h71q23 0 37 -16l215 -244q22 -25 -2 -41l-47 -33q-23 -18 -45 4l-188 197h-11 l-188 -197q-22 -22 -45 -4l-47 33q-26 17 -2 41zM227 483q0 -149 21 -225q25 -87 83.5 -124.5t153.5 -37.5q96 0 155.5 37.5t84.5 124.5q20 73 20 225v39q0 153 -20 226q-25 87 -84 123t-156 36q-96 0 -154 -36t-83 -123q-21 -76 -21 -226v-39z" />
<glyph unicode="&#xf5;" horiz-adv-x="972" d="M92 461v82q0 278 107 385q97 94 286 94q192 0 289 -94q107 -107 107 -385v-82q0 -276 -107 -383q-99 -96 -289 -96q-187 0 -286 96q-107 107 -107 383zM158 1260q41 81 95.5 123t113.5 42q64 0 120 -41l58 -41q42 -32 73 -32q46 0 109 92q13 20 31 8l53 -33 q20 -12 10 -30q-40 -74 -96.5 -118t-114.5 -44q-65 0 -118 39l-58 41q-46 32 -76 32q-56 0 -108 -92q-11 -21 -35 -6l-51 33q-15 9 -6 27zM227 483q0 -149 21 -225q25 -87 83.5 -124.5t153.5 -37.5q96 0 155.5 37.5t84.5 124.5q20 73 20 225v39q0 153 -20 226 q-25 87 -84 123t-156 36q-96 0 -154 -36t-83 -123q-21 -76 -21 -226v-39z" />
<glyph unicode="&#xf6;" horiz-adv-x="972" d="M92 461v82q0 278 107 385q97 94 286 94q192 0 289 -94q107 -107 107 -385v-82q0 -276 -107 -383q-99 -96 -289 -96q-187 0 -286 96q-107 107 -107 383zM225 1288v47q0 38 23.5 59t62.5 21h21q42 0 66 -21t24 -59v-47q0 -39 -24 -59.5t-66 -20.5h-21q-39 0 -62.5 20.5 t-23.5 59.5zM227 483q0 -149 21 -225q25 -87 83.5 -124.5t153.5 -37.5q96 0 155.5 37.5t84.5 124.5q20 73 20 225v39q0 153 -20 226q-25 87 -84 123t-156 36q-96 0 -154 -36t-83 -123q-21 -76 -21 -226v-39zM557 1288v47q0 38 23.5 59t62.5 21h21q41 0 64.5 -21t23.5 -59 v-47q0 -39 -23 -59.5t-65 -20.5h-21q-39 0 -62.5 20.5t-23.5 59.5z" />
<glyph unicode="&#xf7;" d="M80 498v71q0 31 31 31h841q31 0 31 -31v-75q0 -27 -31 -27h-841q-18 0 -24.5 7.5t-6.5 23.5zM422 147v54q0 39 25.5 61.5t68.5 22.5h21q44 0 69 -22t25 -62v-54q0 -41 -24.5 -62.5t-69.5 -21.5h-21q-44 0 -69 21.5t-25 62.5zM422 866v54q0 39 25.5 61.5t68.5 22.5h21 q44 0 69 -22t25 -62v-54q0 -41 -24.5 -62.5t-69.5 -21.5h-21q-44 0 -69 21.5t-25 62.5z" />
<glyph unicode="&#xf8;" horiz-adv-x="972" d="M92 461v82q0 278 107 385q97 94 286 94q117 0 201 -37l62 119q14 29 40 16l35 -16q25 -14 11 -41l-68 -129l8 -6q107 -107 107 -385v-82q0 -276 -107 -383q-99 -96 -289 -96q-113 0 -194 34l-53 -104q-15 -29 -41 -16l-35 14q-25 14 -10 43l59 113l-12 12 q-107 107 -107 383zM229 481q0 -149 21 -225q7 -29 26 -63l355 686q-51 30 -146 30t-152.5 -36t-82.5 -123q-21 -76 -21 -226v-43zM346 123q57 -29 139 -29q96 0 154.5 37t83.5 125q20 73 20 225v43q0 153 -20 226q-7 23 -23 55z" />
<glyph unicode="&#xf9;" horiz-adv-x="1001" d="M131 289v682q0 14 8.5 23.5t20.5 9.5h76q28 0 28 -29v-670q0 -62 12 -98t41 -62q54 -49 185 -49q127 0 188 58q26 25 36.5 57.5t10.5 93.5v672q0 12 7 19.5t18 7.5h86q22 0 22 -27v-688q0 -156 -90 -234q-45 -39 -109 -56t-169 -17q-191 0 -279 73q-92 77 -92 234z M243 1332.5q-6 10.5 1 29.5l35 72q14 32 55 14l348 -170q21 -12 10 -41l-20 -45q-5 -11 -11.5 -15.5t-15 -3t-24.5 6.5l-351 133q-21 9 -27 19.5z" />
<glyph unicode="&#xfa;" horiz-adv-x="1001" d="M131 289v682q0 14 8.5 23.5t20.5 9.5h76q28 0 28 -29v-670q0 -62 12 -98t41 -62q54 -49 185 -49q127 0 188 58q26 25 36.5 57.5t10.5 93.5v672q0 12 7 19.5t18 7.5h86q22 0 22 -27v-688q0 -156 -90 -234q-45 -39 -109 -56t-169 -17q-191 0 -279 73q-92 77 -92 234z M336 1237q-11 29 10 41l348 170q42 19 56 -14l34 -72q7 -19 1 -29.5t-27 -19.5l-350 -133q-21 -8 -33 -6t-19 18z" />
<glyph unicode="&#xfb;" horiz-adv-x="1001" d="M131 289v682q0 14 8.5 23.5t20.5 9.5h76q28 0 28 -29v-670q0 -62 12 -98t41 -62q54 -49 185 -49q127 0 188 58q26 25 36.5 57.5t10.5 93.5v672q0 12 7 19.5t18 7.5h86q22 0 22 -27v-688q0 -156 -90 -234q-45 -39 -109 -56t-169 -17q-191 0 -279 73q-92 77 -92 234z M213 1231l215 244q14 16 37 16h72q22 0 36 -16l215 -244q22 -25 -2 -41l-47 -33q-23 -18 -45 4l-188 197h-10l-189 -197q-22 -22 -45 -4l-47 33q-26 17 -2 41z" />
<glyph unicode="&#xfc;" horiz-adv-x="1001" d="M131 289v682q0 14 8.5 23.5t20.5 9.5h76q28 0 28 -29v-670q0 -62 12 -98t41 -62q54 -49 185 -49q127 0 188 58q26 25 36.5 57.5t10.5 93.5v672q0 12 7 19.5t18 7.5h86q22 0 22 -27v-688q0 -156 -90 -234q-45 -39 -109 -56t-169 -17q-191 0 -279 73q-92 77 -92 234z M240 1288v47q0 38 23.5 59t62.5 21h20q42 0 66 -21t24 -59v-47q0 -39 -24 -59.5t-66 -20.5h-20q-39 0 -62.5 20.5t-23.5 59.5zM571 1288v47q0 38 23.5 59t62.5 21h21q41 0 64.5 -21t23.5 -59v-47q0 -39 -23 -59.5t-65 -20.5h-21q-39 0 -62.5 20.5t-23.5 59.5z" />
<glyph unicode="&#xfd;" horiz-adv-x="876" d="M43 977q-7 27 23 27h92q19 0 22 -19q45 -220 109 -455q36 -137 102 -331q12 -37 26.5 -51.5t39.5 -14.5h8q71 194 121.5 395.5t101.5 458.5q3 17 23 17h94q11 0 16.5 -5.5t3.5 -13.5q-94 -446 -193.5 -741.5t-240.5 -608.5q-12 -26 -43 -14l-67 25q-12 5 -15 16t4 25 q89 176 150 327q-50 1 -81 31t-56 98q-66 181 -115 353q-73 258 -125 481zM283 1237q-11 29 10 41l348 170q41 18 55 -14l35 -72q7 -19 1 -29.5t-27 -19.5l-351 -133q-16 -5 -24.5 -6.5t-15 3t-11.5 15.5z" />
<glyph unicode="&#xfe;" horiz-adv-x="1021" d="M135 -340v1702q0 24 23 24h86q24 0 24 -24v-453h4q81 113 283 113q200 0 287.5 -110t87.5 -349v-106q0 -115 -18.5 -199.5t-60.5 -148t-116.5 -95.5t-181.5 -32q-105 0 -169 25t-112 83h-4v-430q0 -22 -18 -22h-94q-21 0 -21 22zM268 348q0 -120 72.5 -187t200.5 -67 q72 0 118 17.5t80 58.5q33 41 44.5 107.5t11.5 187.5v82q0 112 -13.5 180.5t-50.5 112.5q-60 69 -194 69q-141 0 -205 -65.5t-64 -192.5v-303z" />
<glyph unicode="&#xff;" horiz-adv-x="876" d="M43 977q-7 27 23 27h92q19 0 22 -19q45 -220 109 -455q36 -137 102 -331q12 -37 26.5 -51.5t39.5 -14.5h8q71 194 121.5 395.5t101.5 458.5q3 17 23 17h94q11 0 16.5 -5.5t3.5 -13.5q-94 -446 -193.5 -741.5t-240.5 -608.5q-12 -26 -43 -14l-67 25q-12 5 -15 16t4 25 q89 176 150 327q-50 1 -81 31t-56 98q-66 181 -115 353q-73 258 -125 481zM182 1288v47q0 38 23.5 59t62.5 21h21q42 0 66 -21t24 -59v-47q0 -39 -24 -59.5t-66 -20.5h-21q-39 0 -62.5 20.5t-23.5 59.5zM514 1288v47q0 38 23.5 59t62.5 21h21q41 0 64.5 -21t23.5 -59v-47 q0 -39 -23 -59.5t-65 -20.5h-21q-39 0 -62.5 20.5t-23.5 59.5z" />
<glyph unicode="&#x152;" horiz-adv-x="1708" d="M111 608v107q0 359 129 502q114 126 356 126q181 0 326 -90q9 15 24 27q53 45 176 45h471q18 0 24.5 -7.5t6.5 -23.5v-59q0 -31 -31 -31h-460q-61 0 -84 -20q-25 -25 -25 -84v-355h500q18 0 24 -7t6 -23v-60q0 -30 -30 -30h-500v-400q0 -59 25 -84q23 -20 84 -20h460 q31 0 31 -31v-59q0 -16 -6.5 -23.5t-24.5 -7.5h-471q-123 0 -176 45q-22 18 -35 39q-52 -45 -136 -73.5t-179 -28.5q-230 0 -346 116q-74 76 -106.5 201t-32.5 309zM260 635q0 -162 19 -268t73 -170q82 -95 244 -95q151 0 254 68q19 12 24 23t5 40v869q0 25 -6.5 37 t-22.5 22q-105 62 -254 62q-174 0 -252 -105q-50 -65 -67 -168t-17 -260v-55z" />
<glyph unicode="&#x153;" horiz-adv-x="1581" d="M92 461v82q0 278 107 385q97 94 286 94q186 0 281 -92q27 -30 41 -58q89 150 321 150q178 0 265 -84q47 -45 68.5 -108t21.5 -158v-162q0 -44 -18.5 -64t-61.5 -20h-522q0 -3 -1 -8.5t-1 -7.5q7 -175 67 -244.5t201 -69.5q122 0 225 41q40 15 49 -14l15 -45 q3 -10 3 -18.5t-11.5 -18t-36.5 -18.5q-104 -39 -244 -39q-131 0 -214.5 36.5t-127.5 114.5q-15 -29 -45 -59q-51 -49 -116 -71.5t-159 -22.5q-187 0 -286 96q-107 107 -107 383zM229 481q0 -149 21 -225q25 -88 82.5 -125t152.5 -37q96 0 154.5 37t83.5 125q20 73 20 225 v43q0 151 -20 226q-25 87 -83 123t-155 36q-95 0 -152.5 -36t-82.5 -123q-21 -76 -21 -226v-43zM881 543h438q12 0 17 1.5t8.5 8t3.5 20.5v78q0 73 -11 117t-37 76q-53 65 -170 65q-130 0 -189.5 -70.5t-59.5 -254.5v-41z" />
<glyph unicode="&#x178;" horiz-adv-x="972" d="M47 1300q-8 25 21 25h90q32 0 37 -20q81 -278 198 -533q48 -109 86 -176h15q38 72 84 176q128 287 200 533q8 20 37 20h90q29 0 21 -25q-78 -282 -226 -579q-12 -25 -143 -270v-420q0 -31 -33 -31h-75q-33 0 -33 31v420q-92 166 -144 270q-146 292 -225 579zM225 1559v47 q0 38 23.5 59t62.5 21h21q42 0 66 -21t24 -59v-47q0 -39 -24 -59.5t-66 -20.5h-21q-39 0 -62.5 20.5t-23.5 59.5zM557 1559v47q0 38 23.5 59t62.5 21h21q41 0 64.5 -21t23.5 -59v-47q0 -39 -23 -59.5t-65 -20.5h-21q-39 0 -62.5 20.5t-23.5 59.5z" />
<glyph unicode="&#x2c6;" horiz-adv-x="761" d="M94 1231l215 244q14 16 37 16h72q23 0 37 -16l215 -244q22 -25 -2 -41l-47 -33q-24 -18 -46 4l-188 197h-10l-189 -197q-22 -22 -45 -4l-47 33q-26 17 -2 41z" />
<glyph unicode="&#x2dc;" horiz-adv-x="825" d="M80 1260q41 81 95.5 123t113.5 42q65 0 121 -41l57 -41q42 -32 74 -32q45 0 108 92q13 20 31 8l53 -33q20 -12 10 -30q-40 -74 -96.5 -118t-114.5 -44q-65 0 -118 39l-58 41q-46 32 -75 32q-57 0 -109 -92q-11 -21 -35 -6l-51 33q-15 9 -6 27z" />
<glyph unicode="&#x2000;" horiz-adv-x="902" />
<glyph unicode="&#x2001;" horiz-adv-x="1804" />
<glyph unicode="&#x2002;" horiz-adv-x="902" />
<glyph unicode="&#x2003;" horiz-adv-x="1804" />
<glyph unicode="&#x2004;" horiz-adv-x="601" />
<glyph unicode="&#x2005;" horiz-adv-x="451" />
<glyph unicode="&#x2006;" horiz-adv-x="300" />
<glyph unicode="&#x2007;" horiz-adv-x="300" />
<glyph unicode="&#x2008;" horiz-adv-x="225" />
<glyph unicode="&#x2009;" horiz-adv-x="360" />
<glyph unicode="&#x200a;" horiz-adv-x="100" />
<glyph unicode="&#x2010;" horiz-adv-x="600" d="M72 496v75q0 31 30 31h396q30 0 30 -31v-79q0 -27 -30 -27h-396q-18 0 -24 7.5t-6 23.5z" />
<glyph unicode="&#x2011;" horiz-adv-x="600" d="M72 496v75q0 31 30 31h396q30 0 30 -31v-79q0 -27 -30 -27h-396q-18 0 -24 7.5t-6 23.5z" />
<glyph unicode="&#x2012;" horiz-adv-x="600" d="M72 496v75q0 31 30 31h396q30 0 30 -31v-79q0 -27 -30 -27h-396q-18 0 -24 7.5t-6 23.5z" />
<glyph unicode="&#x2013;" horiz-adv-x="1024" d="M0 496v75q0 31 31 31h962q31 0 31 -31v-79q0 -27 -31 -27h-962q-18 0 -24.5 7.5t-6.5 23.5z" />
<glyph unicode="&#x2014;" horiz-adv-x="2048" d="M0 496v75q0 31 31 31h1986q31 0 31 -31v-79q0 -27 -31 -27h-1986q-18 0 -24.5 7.5t-6.5 23.5z" />
<glyph unicode="&#x2018;" horiz-adv-x="448" d="M129 1051v39q0 64 27 147q32 89 86 154q19 24 43 10l37 -23q22 -12 2 -39q-24 -34 -41 -67q-22 -42 -29 -70q-8 -28 10 -37l37 -18q23 -12 31 -30.5t8 -53.5v-39q0 -37 -22 -57.5t-62 -20.5h-31q-96 0 -96 105z" />
<glyph unicode="&#x2019;" horiz-adv-x="448" d="M109 1290v39q0 37 22 57.5t62 20.5h30q96 0 96 -104v-39q0 -68 -26 -148q-32 -87 -86 -153q-20 -24 -43 -11l-37 23q-22 13 -2 39q24 34 41 67q22 42 29 70q8 27 -11 37l-37 18q-22 12 -30 30.5t-8 53.5z" />
<glyph unicode="&#x201a;" horiz-adv-x="448" d="M111 74v39q0 37 22 57t62 20h30q97 0 97 -104v-39q0 -64 -27 -147q-32 -89 -86 -154q-19 -24 -43 -10l-37 22q-22 12 -2 39q22 31 41 68q22 43 29 69q8 27 -11 37l-36 19q-23 12 -31 30.5t-8 53.5z" />
<glyph unicode="&#x201c;" horiz-adv-x="770" d="M111 1051v39q0 67 26 147q32 89 86 154q19 24 43 10l37 -23q22 -12 2 -39q-24 -34 -41 -67q-20 -38 -28 -70q-8 -28 10 -37l37 -18q23 -12 31 -30.5t8 -53.5v-39q0 -37 -22 -57.5t-62 -20.5h-31q-96 0 -96 105zM432 1051v39q0 64 27 147q32 89 86 154q19 24 43 10l37 -23 q22 -12 2 -39q-24 -34 -41 -67q-22 -42 -29 -70q-8 -28 10 -37l37 -18q23 -12 31 -30.5t8 -53.5v-39q0 -37 -22 -57.5t-62 -20.5h-31q-96 0 -96 105z" />
<glyph unicode="&#x201d;" horiz-adv-x="770" d="M127 1290v39q0 37 22 57.5t62 20.5h31q96 0 96 -104v-39q0 -65 -27 -148q-32 -87 -86 -153q-20 -24 -43 -11l-37 23q-22 13 -2 39q24 34 41 67q22 42 29 70q8 28 -10 37l-37 18q-23 12 -31 30.5t-8 53.5zM449 1290v39q0 37 21.5 57.5t61.5 20.5h31q96 0 96 -104v-39 q0 -68 -26 -148q-32 -87 -86 -153q-20 -24 -43 -11l-37 23q-22 13 -2 39q24 34 41 67q22 42 29 70q8 27 -11 37l-37 18q-22 12 -30 30.5t-8 53.5z" />
<glyph unicode="&#x201e;" horiz-adv-x="770" d="M111 74v39q0 37 22 57t62 20h30q97 0 97 -104v-39q0 -64 -27 -147q-32 -89 -86 -154q-19 -24 -43 -10l-37 22q-22 12 -2 39q22 31 41 68q22 43 29 69q8 27 -11 37l-36 19q-23 12 -31 30.5t-8 53.5zM432 74v39q0 37 22 57t62 20h31q96 0 96 -104v-39q0 -64 -27 -147 q-32 -89 -86 -154q-19 -24 -43 -10l-36 22q-22 12 -2 39q18 25 40 68t29 69q8 28 -10 37l-37 19q-23 12 -31 30.5t-8 53.5z" />
<glyph unicode="&#x2022;" horiz-adv-x="739" d="M125 535q0 103 70.5 174t173.5 71t174 -71t71 -174t-71 -173.5t-174 -70.5t-173.5 70.5t-70.5 173.5z" />
<glyph unicode="&#x2026;" horiz-adv-x="1179" d="M98 61v50q0 38 24 58.5t64 20.5h21q42 0 65 -20.5t23 -58.5v-50q0 -79 -88 -79h-21q-41 0 -64.5 20t-23.5 59zM492 61v50q0 38 24 58.5t64 20.5h20q42 0 65 -20.5t23 -58.5v-50q0 -79 -88 -79h-20q-41 0 -64.5 20t-23.5 59zM885 61v50q0 38 24 58.5t64 20.5h20 q42 0 65 -20.5t23 -58.5v-50q0 -79 -88 -79h-20q-41 0 -64.5 20t-23.5 59z" />
<glyph unicode="&#x202f;" horiz-adv-x="360" />
<glyph unicode="&#x2039;" horiz-adv-x="583" d="M78 467v16q0 32 18 47l281 234q34 30 57 10l39 -37q24 -21 -6 -51l-227 -211l227 -211q30 -30 6 -51l-39 -37q-23 -20 -57 10l-281 234q-18 15 -18 47z" />
<glyph unicode="&#x203a;" horiz-adv-x="583" d="M111 213q-24 21 6 51l227 211l-227 211q-30 30 -6 51l39 37q23 20 57 -10l280 -234q19 -16 19 -47v-16q0 -31 -19 -47l-280 -234q-34 -30 -57 -10z" />
<glyph unicode="&#x205f;" horiz-adv-x="451" />
<glyph unicode="&#x20ac;" d="M43 477v53q0 31 31 31h135v139h-135q-18 0 -24.5 7.5t-6.5 23.5v53q0 31 31 31h137q12 285 113 402q108 126 333 126q191 0 340 -86q22 -12 26 -24.5t-7 -32.5l-25 -39q-16 -31 -59 -6q-126 74 -266 74q-71 0 -131 -20.5t-93 -59.5q-40 -47 -59 -124t-23 -210h439 q30 0 30 -31v-57q0 -27 -30 -27h-441v-139h441q30 0 30 -31v-57q0 -27 -30 -27h-437q12 -181 82 -262q41 -46 96.5 -67t145.5 -21q135 0 266 51q22 7 31 2.5t14 -22.5l13 -39q9 -37 -37 -55q-127 -51 -287 -51q-138 0 -221.5 32t-142.5 101q-89 110 -107 331h-141 q-18 0 -24.5 7.5t-6.5 23.5z" />
<glyph unicode="&#x2122;" horiz-adv-x="1402" d="M66 1245v70q0 14 16 14h432q14 0 14 -16v-68q0 -14 -14 -14h-162v-504q0 -16 -16 -16h-80q-16 0 -16 16v504h-158q-16 0 -16 14zM590 727q12 313 31 555q3 47 47 47h92q24 0 35 -9t20 -38q16 -49 41.5 -132.5t44 -140t41.5 -120.5h10q23 64 41.5 120.5t44 140t41.5 132.5 q9 28 20.5 37.5t35.5 9.5h92q44 0 47 -47q19 -242 31 -555q0 -16 -15 -16h-78q-16 0 -16 16q-12 311 -25 496h-6q-93 -295 -135 -412q-7 -21 -16 -26t-31 -5h-72q-22 0 -31 5t-16 26q-42 117 -135 412h-6q-13 -185 -25 -496q0 -16 -16 -16h-78q-14 0 -14 16z" />
<glyph unicode="&#x25fc;" horiz-adv-x="1003" d="M0 0v1004h1004v-1004h-1004z" />
</font>
</defs>
</svg>
